<svg id="Layer_1" data-name="Layer 1" xmlns="http://www.w3.org/2000/svg" viewBox="0 0 1920 1080"><defs><style>.cls-1{fill:#f8f8f8;}.cls-2{fill:#371a45;}.cls-3{opacity:0.25;}.cls-4{fill:#bcc4cc;}.cls-5{opacity:0.61;}.cls-6{fill:#fff;}.cls-7{opacity:0.7;}.cls-8{fill:#111a28;}.cls-9{opacity:0.5;}.cls-10{opacity:0.41;}.cls-11{fill:#ffb200;}.cls-12{fill:#ff9100;}.cls-13{fill:#d66b09;}.cls-14{fill:#ffd766;}.cls-15{fill:#ffaa39;}.cls-16{fill:#ffcf6e;}.cls-17{fill:#ffec90;}</style></defs><path class="cls-1" d="M1312.57,480.52c-1,.18-2,.42-3,.71-11.46,3.14-28.52,12.22-28.52,12.22l-15.45,33.42a4.51,4.51,0,0,1-4.91,2.53c-16.9-3.16-32.13-8.25-45.39-15.62a4.48,4.48,0,0,1-2.22-4.77c.14-.71.31-1.51.52-2.37,1.15-4.77,3.45-11.42,7.77-15.12,7.25-6.19,19.18-1.54,19.18-1.54s10.83-23.69,14.67-29.79,18.68-15.33,18.68-15.33l32,15.28S1323.75,478.42,1312.57,480.52Z"/><path class="cls-1" d="M1408,435.37a15.9,15.9,0,0,1-1.82,10.27c-4.09,7.34-13.61,19.61-32,21.11-4.21.35-8.34-1.9-12.32-5.91-21.07-21.22-37.91-91.95-37.91-91.95l20.16-23.26s23-3.11,32.74,3c4.23,2.66,9.76,12.93,15.12,26.94,2.67,7,5.3,14.86,7.7,23.21,1.91,6.64,3.67,13.56,5.2,20.53C1406.1,424.66,1407.14,430.06,1408,435.37Z"/><path class="cls-2" d="M1378.29,468.23c-1.26.22-2.56.39-3.91.5-12,1-24.41-15.65-37-49.4a484.4,484.4,0,0,1-15.28-50,2,2,0,0,1,3.86-.92A477.93,477.93,0,0,0,1341.06,418c11.6,31,23.31,47.59,33,46.8,17.5-1.43,26.56-13.2,30.41-20.09a14,14,0,0,0,1.59-9c-6.47-39.84-22-80.26-30.22-85.4-9-5.64-31.19-2.72-31.42-2.69a2,2,0,1,1-.53-3.93c1-.14,23.88-3.14,34.06,3.26s25.7,49.19,32,88.12a17.91,17.91,0,0,1-2,11.56C1404,453.66,1395.08,465.36,1378.29,468.23Z"/><path class="cls-1" d="M1404.91,419.29c-6.51,6-18.66,11.56-24.21,8.69l-3.84-26.18-1.93-13.15s8-8.33,17.08-13.1c4.18-2.2,7.76,3.86,10.58,11.7l.11.3c3.23,9.07,5.45,20.37,6.44,24C1409.72,413.68,1407.92,416.52,1404.91,419.29Z"/><path class="cls-2" d="M1387.39,430.47a12.15,12.15,0,0,1-7.6-.73,2,2,0,0,1,1.82-3.52c3.8,2,13.4-1.39,20.55-7.18,3.93-3.18,5.38-5.85,5.07-7s-.63-2.51-1.07-4.43c-1.79-7.66-6.53-28-11.75-30.39a1.46,1.46,0,0,0-1.47.07c-8.64,4.56-16.51,12.64-16.58,12.72a2,2,0,0,1-2.86-2.75c.34-.35,8.37-8.62,17.59-13.48a5.42,5.42,0,0,1,5-.17c6.45,2.94,10.59,18.63,14,33.11.44,1.86.78,3.34,1,4.27.86,3.13-1.41,7.08-6.39,11.11C1400.31,425.64,1393.41,429.44,1387.39,430.47Z"/><g class="cls-3"><path class="cls-2" d="M1404.91,419.29c1.19,5.37,2.23,10.77,3.1,16.08a15.9,15.9,0,0,1-1.82,10.27c-4.09,7.34-13.61,19.61-32,21.11-4.21.35-8.34-1.9-12.32-5.91-1.51-10.62-.17-11.64-.75-22.11-.64-11.34.29-18.94,1.46-20.82l14.25-16.11.68-.77s1.65,6.09,10.09,4.35a24,24,0,0,0,12.08-6.62c2.93-3.13,4.47-7.05,3-11.21,3.23,9.07,5.45,20.37,6.44,24C1409.72,413.68,1407.92,416.52,1404.91,419.29Z"/></g><path class="cls-2" d="M1399.52,381.91c-2.86,1.44-5.74,3-8.46,4.7-1.85,1.22-4,2.5-5.31,4.22a2.21,2.21,0,0,0-.11.21s0,0,0,.07a10.73,10.73,0,0,0,.06,1.49c.35,3.17,1,6.42,1.64,9.62s1.34,6.42,2.07,9.62c-1-3.11-2-6.24-3-9.38s-1.91-6.28-2.62-9.58a13.22,13.22,0,0,1-.23-1.69,2.79,2.79,0,0,1,.3-1.36c1.39-2.44,3.54-3.91,5.58-5.59,2.66-2.05,5.39-3.9,8.23-5.7a1.93,1.93,0,1,1,1.88,3.37Z"/><path class="cls-2" d="M1262.59,531.37a6.53,6.53,0,0,1-2.29,0c-17.51-3.27-33-8.6-46-15.83a6.47,6.47,0,0,1-3.21-6.89c1-4.91,3.4-13.87,9-18.62,6.36-5.43,15.56-3.59,19.41-2.47,2.53-5.49,10.73-23.13,14-28.4,4-6.41,18.69-15.58,19.31-16a2,2,0,1,1,2.1,3.36c-4,2.51-15.1,10-18.05,14.71-3.73,5.92-14.44,29.32-14.54,29.55a2,2,0,0,1-2.53,1c-.1,0-10.93-4.14-17.17,1.2-4.64,4-6.77,12-7.63,16.36a2.49,2.49,0,0,0,1.24,2.66c12.63,7,27.7,12.21,44.79,15.4a2.52,2.52,0,0,0,2.74-1.41l15.45-33.42a1.94,1.94,0,0,1,.87-.92c.84-.45,20.78-11,32.12-13.13,1.69-.32,1.9-1,2-1.19,1-3-5.25-11.26-9.76-15.86a2,2,0,0,1,2.84-2.77c2.14,2.18,12.73,13.41,10.71,19.82-.45,1.43-1.69,3.27-5,3.9-9.71,1.82-27,10.66-30.4,12.42l-15.17,32.81A6.48,6.48,0,0,1,1262.59,531.37Z"/><g class="cls-3"><path class="cls-2" d="M1311.81,471.44c.21,1.22-.49,2-1,4.64-.22,1.08-.67,3-1.25,5.15-11.46,3.14-28.52,12.22-28.52,12.22l-15.45,33.42a4.51,4.51,0,0,1-4.91,2.53c-16.9-3.16-32.13-8.25-45.39-15.62a4.48,4.48,0,0,1-2.22-4.77c.14-.71.31-1.51.52-2.37l5.79,2.2c20,6.82,33.4,5.23,37.77-7.95,0,0,9.6-18.95,18.36-27.59a20.51,20.51,0,0,0,5.54-19.48L1308.32,469C1309.25,469.5,1311.6,470.22,1311.81,471.44Z"/></g><path class="cls-2" d="M1281.43,494.5a1.68,1.68,0,0,1-.39,0c-20.68-1.42-35.35-14.91-36-15.48a1.65,1.65,0,1,1,2.25-2.41c.16.15,14.47,13.26,33.94,14.6a1.65,1.65,0,0,1,.16,3.28Z"/><path class="cls-1" d="M1234.74,459.27s14.83-5.79,25.48-16.82l-29.54,7.4"/><g class="cls-3"><path class="cls-2" d="M1234.74,459.27s14.83-5.79,25.48-16.82l-29.54,7.4"/></g><path class="cls-2" d="M1235.07,461.23a2,2,0,0,1-1-3.81c.14-.05,14.57-5.77,24.78-16.35a2,2,0,1,1,2.85,2.76c-10.83,11.22-25.57,17-26.19,17.29A2.85,2.85,0,0,1,1235.07,461.23Z"/><path class="cls-1" d="M1368.82,482.52l-16.48,31.37a17.13,17.13,0,0,1-21.67,7.93c-7.23-3-14.07-9.77-18.85-17.32-3.59-5.64-6-11.72-6.64-17a10.19,10.19,0,0,1,.92-5.47l1.63-3.56s-20.08-2.55-29.29-31.64l-1.33-7.77s-10,1-11-.13-15.55-31.23-15.55-31.23,9-22.39,25.53-33.3c7.81-5.15,19.35-8.59,29.36-10.79a194.51,194.51,0,0,1,20.52-3.36l15.77-3.56s14.19,1.54,23.61,13.13,15.47,33.88,10.94,46.53C1389.67,443.66,1389.86,466.6,1368.82,482.52Z"/><path class="cls-2" d="M1340.27,524.8a18.72,18.72,0,0,1-10.36-1.15c-14-5.82-25.27-23.61-26.7-35.94a12.2,12.2,0,0,1,1.09-6.52l.61-1.34c-6-1.74-20.75-8.38-28.36-32.43a2.5,2.5,0,0,1-.07-.26l-1-6c-9.39.82-10.36-.38-10.89-1-1-1.17-10.31-20.3-15.8-31.61a2,2,0,0,1-.06-1.6c.38-.94,9.42-23.09,26.29-34.22s49.4-14.33,50.78-14.46a2,2,0,1,1,.38,4c-.32,0-33,3.3-49,13.82-14.1,9.31-22.68,27.57-24.45,31.59,5.18,10.65,13.13,26.83,14.76,29.74a51.08,51.08,0,0,0,9.42-.29,2,2,0,0,1,2.15,1.64l1.31,7.63c8.74,27.44,27.43,30.12,27.61,30.14a2,2,0,0,1,1.49,1,2,2,0,0,1,.07,1.79l-1.64,3.55a8.3,8.3,0,0,0-.75,4.42c1.3,11.21,12,27.59,24.29,32.73a15.21,15.21,0,0,0,19.14-7l16.49-31.37a1.87,1.87,0,0,1,.56-.66c18.7-14.15,20.95-35,6.88-63.73a2,2,0,0,1-.09-1.54c4-11.26-1.12-32.93-10.61-44.6-8.77-10.79-22.15-12.4-22.29-12.42a2,2,0,0,1,.43-3.94c.62.06,15.12,1.76,24.94,13.86,9.2,11.31,15.93,33.81,11.54,47.64,7,14.4,9.9,26.73,9,37.66-1,11.93-6.72,22-17.07,30l-16.28,31A19.28,19.28,0,0,1,1340.27,524.8Z"/><path class="cls-1" d="M1286.59,407.42l41.24-7.06a6.79,6.79,0,0,1,7.84,5.55l4.27,25a6.8,6.8,0,0,1-5.38,7.81l-41.07,8.08a6.79,6.79,0,0,1-8-5.52l-4.45-26A6.79,6.79,0,0,1,1286.59,407.42Z"/><path class="cls-2" d="M1293.65,448.76a8.78,8.78,0,0,1-10.12-7.17l-4.45-26a8.79,8.79,0,0,1,7.17-10.13l41.24-7.06a8.79,8.79,0,0,1,10.13,7.17l4.28,25a8.73,8.73,0,0,1-7,10.09l-41.07,8.08Zm-6.73-39.39a4.83,4.83,0,0,0-3.93,5.55l4.45,26a4.81,4.81,0,0,0,5.67,3.9l41.07-8.08a4.77,4.77,0,0,0,3.81-5.52l-4.28-25a4.8,4.8,0,0,0-5.55-3.92l-41.24,7.05Z"/><path class="cls-1" d="M1274.78,409.9l41.24-7.06a6.8,6.8,0,0,1,7.84,5.55l4.27,25a6.79,6.79,0,0,1-5.38,7.81l-41.07,8.07a6.78,6.78,0,0,1-8-5.51l-4.45-26A6.79,6.79,0,0,1,1274.78,409.9Z"/><path class="cls-2" d="M1310.14,445.62a1.92,1.92,0,0,1-2.21-1.53c-.66-3.34-1.66-8.58-2-11.3-3.1-.23-12.22.11-20.38.66a1.94,1.94,0,0,1-2-1.51l-5-22.59a1.93,1.93,0,1,1,3.76-.83l4.63,21c20.4-1.3,21.44-.28,22.07.34a2,2,0,0,1,.61,1.56c0,.85,1.08,6.76,2.1,12a1.94,1.94,0,0,1-1.52,2.26Zm-3.33-12.7h0Zm-1-1.7a.24.24,0,0,0,0,.12A.48.48,0,0,1,1305.77,431.22Zm0,0h0Z"/><path class="cls-2" d="M1281.85,451.24a8.77,8.77,0,0,1-10.13-7.17l-4.44-26a8.78,8.78,0,0,1,7.17-10.13l41.24-7.06a8.78,8.78,0,0,1,10.13,7.17l4.27,25a8.72,8.72,0,0,1-7,10.09l-41.06,8.08Zm-6.73-39.38a4.8,4.8,0,0,0-3.93,5.55l4.44,26a4.81,4.81,0,0,0,5.67,3.91l41.07-8.08a4.79,4.79,0,0,0,3.81-5.53l-4.27-25a4.82,4.82,0,0,0-5.55-3.93l-41.25,7.06Z"/><path class="cls-4" d="M1325.53,425.94l.34,2.89a3.63,3.63,0,0,1-2.86,4l-52.16,10.85-72.08,15a3.63,3.63,0,0,1-4.3-2.83l-.6-3a3.61,3.61,0,0,1,.84-3.13h0a3.53,3.53,0,0,1,2-1.15l71.91-14.89.14,0,52.45-10.86A3.63,3.63,0,0,1,1325.53,425.94Z"/><g class="cls-5"><path class="cls-6" d="M1325.53,425.94l.24,2a3.64,3.64,0,0,0-4.06-2.08l-52.4,10.85-.59-3,52.47-10.87A3.63,3.63,0,0,1,1325.53,425.94Z"/></g><path class="cls-4" d="M1270.92,443.37h-.13l-76.07,6.36h0L1190.8,444l-29.74-43.65a3.74,3.74,0,0,1-.26-3.82l1.29-2.57a3.76,3.76,0,0,1,2.55-2l62.26-14.07a10.08,10.08,0,0,1,10.86,4.62l.18.31,30.66,50.87,1.32,5.54Z"/><g class="cls-5"><path class="cls-6" d="M1268.81,434.6l-29.37-48.74a10.07,10.07,0,0,0-10.85-4.63l-62.27,14.08a3.76,3.76,0,0,0-2.54,2l-1.29,2.57a3.72,3.72,0,0,0-.39,2l-1-1.52a3.74,3.74,0,0,1-.26-3.82l1.29-2.57a3.76,3.76,0,0,1,2.55-2l62.26-14.07a10.08,10.08,0,0,1,10.86,4.62l30.84,51.18Z"/></g><path class="cls-2" d="M1198.92,460.34a5.3,5.3,0,0,1-6.09-4.18l-.61-3a5.33,5.33,0,0,1,4.13-6.26h0l124.5-25.77a5.27,5.27,0,0,1,4.18.89,5.36,5.36,0,0,1,2.17,3.68l.34,2.89a5.28,5.28,0,0,1-4.19,5.82L1199.11,460.3ZM1197,450.23h0a2,2,0,0,0-1.52,2.3l.61,3a1.88,1.88,0,0,0,.84,1.24,2,2,0,0,0,1.47.29l124.23-25.86a1.93,1.93,0,0,0,1.54-2.13l-.34-2.89a1.93,1.93,0,0,0-2.33-1.68Z"/><path class="cls-2" d="M1271.2,445a1.67,1.67,0,0,1-1.91-1.26l-2.26-9.42-30.71-50.95a8.39,8.39,0,0,0-9-3.86L1165,393.6a2.11,2.11,0,0,0-1.41,1.11l-1.29,2.57a2.11,2.11,0,0,0,.14,2.13l33.66,49.39a1.68,1.68,0,0,1-2.78,1.89l-33.65-49.39a5.47,5.47,0,0,1-.37-5.52l1.29-2.58a5.47,5.47,0,0,1,3.67-2.87l62.27-14.07a11.75,11.75,0,0,1,12.67,5.4L1270,432.83a2,2,0,0,1,.19.48l2.32,9.66a1.68,1.68,0,0,1-1.24,2Z"/><g class="cls-3"><path class="cls-2" d="M1270.85,443.66l-72.08,15a3.63,3.63,0,0,1-4.3-2.83l-.6-3a3.61,3.61,0,0,1,.84-3.13L1190.8,444c33.5-6.6,52.57-22.45,44.94-53.22l-1.57-9.22,3.77,1.27,30.66,50.87.14,0c.43,2,.83,3.86,1.18,5.57.33,1.54.62,2.94.87,4.14A2.8,2.8,0,0,1,1270.85,443.66Z"/></g><path class="cls-1" d="M1206.67,459.57s1.1-12.56,14.2-12.67,18.25,12,10.09,18.18-36.75,10.29-37-12.92C1194,452.16,1196.17,458.57,1206.67,459.57Z"/><g class="cls-3"><path class="cls-2" d="M1231,465.08c-5.64,4.24-21,7.53-30.08,1.51,7.9.73,16.44-1.75,20.33-4.67,5.5-4.14,5-11,0-15C1234.06,447,1239.05,459,1231,465.08Z"/></g><path class="cls-2" d="M1220,471.28c-6,1-12.76.79-18.09-1.84-4.45-2.19-9.78-7-9.89-17.26a2,2,0,0,1,1.64-2h0a2,2,0,0,1,2.21,1.31c.07.18,1.79,4.53,9.2,5.84,1.21-5.13,5.51-12.35,15.83-12.43,7.43-.06,13.49,3.61,15.42,9.33a10.88,10.88,0,0,1-4.13,12.42C1229.51,468.66,1225,470.42,1220,471.28Zm-23-12.82a12.79,12.79,0,0,0,6.65,7.42c8.35,4.12,21.27,1.29,26.15-2.38a7,7,0,0,0,2.76-8c-1-3.09-4.73-6.69-11.64-6.63-11.17.08-12.21,10.41-12.25,10.85a2,2,0,0,1-2.16,1.8A20.42,20.42,0,0,1,1197,458.46Z"/><path class="cls-1" d="M1347.83,405.94c.32,6.19-1.3,12.52-4.57,16.05l-18.9-2.93s-3.39,5.6-14.21,6.34-17.56-9.21-17.56-9.21-2.92,10.2-9.07,7.34a5.6,5.6,0,0,1-3.08-3.22,9.27,9.27,0,0,1,0-5.27,16.22,16.22,0,0,1,2.62-5.48l8.47-11.77c6.65-12.76,20.06-6.69,29.19-3.32l20.34-3.48C1345.35,394,1347.52,399.89,1347.83,405.94Z"/><path class="cls-2" d="M1343.59,424a2,2,0,0,1-.64,0l-17.75-2.75c-1.7,1.89-6.09,5.58-14.92,6.18-8.12.55-14.06-4.19-17.08-7.37-1,2-2.62,4.37-5,5.44a6.44,6.44,0,0,1-5.55-.12c-4-1.85-5.46-5.68-4.16-10.78a18.28,18.28,0,0,1,2.93-6.15l8.39-11.65c7.06-13.36,20.74-8.21,29.8-4.8l1.28.48,19.81-3.39a2,2,0,0,1,1.47.33c4,2.83,6.77,8.21,7.47,14.76.81,7.54-1.14,15.08-5,19.21A1.92,1.92,0,0,1,1343.59,424ZM1324,417.1a2.22,2.22,0,0,1,.63,0l17.8,2.76c2.6-3.45,3.9-9.43,3.28-15.31-.54-5-2.42-9.16-5.18-11.46l-19.49,3.34a2,2,0,0,1-1-.1l-1.79-.67c-11.07-4.16-19.94-6.59-25,3l-.15.24-8.47,11.77a14.3,14.3,0,0,0-2.31,4.81c-1.2,4.72,1.12,5.8,2,6.21a2.49,2.49,0,0,0,2.23.1c2.16-1,3.72-4.9,4.1-6.2a2,2,0,0,1,3.55-.56c.06.09,6.25,9,15.77,8.34s12.62-5.34,12.65-5.39A2,2,0,0,1,1324,417.1Z"/><path class="cls-2" d="M1290.72,415.54l5.7-10.4-2,11.7a2,2,0,1,1-3.75-1.3Z"/><polygon class="cls-2" points="1322.44 418.57 1326.23 413.02 1326.28 419.55 1322.44 418.57"/><g class="cls-3"><path class="cls-2" d="M1347.83,405.94c.32,6.19-1.3,12.52-4.57,16.05l-18.9-2.93s-3.39,5.6-14.21,6.34-17.56-9.21-17.56-9.21-2.92,10.2-9.07,7.34a5.6,5.6,0,0,1-3.08-3.22l.5-.7s4.53,2,7.93-4.8a78.92,78.92,0,0,1,8.3-12.85c-.08.37-2.6,12.14,7.17,15.78,9.94,3.7,18.42-12.54,18.42-12.54s7.48,4.58,23.07,1.07A16,16,0,0,1,1347.83,405.94Z"/></g><path class="cls-2" d="M1306.28,477.11c4.9-5,13.11-10.54,20.42-8.21a34.5,34.5,0,0,1,9.32,5.72,47.2,47.2,0,0,1,7.36,7.6,57.67,57.67,0,0,0-15.54-8.8,13.63,13.63,0,0,0-6.53-.86c-4.64.81-8.82,4-12.12,7.25a2,2,0,1,1-2.91-2.7Z"/><path class="cls-2" d="M1343.9,523.74a1.92,1.92,0,0,1-1.31-3.55,2.66,2.66,0,0,0,1.25-2.25c.74-7.37-11.38-24.49-19.6-32-8.54-7.79-14-5.95-14.25-5.87a1.91,1.91,0,0,1-2.49-1.08,1.94,1.94,0,0,1,1.09-2.5c.32-.13,7.78-2.95,18.25,6.61,7.79,7.11,21.81,25.47,20.83,35.21a6.51,6.51,0,0,1-3.11,5.18A2,2,0,0,1,1343.9,523.74Z"/><path class="cls-2" d="M1322.11,469.06l-.08.13s0,.07,0,.06.15-.42.2-.54a79.3,79.3,0,0,1,7.74-15,33.19,33.19,0,0,1,18.63-14.13,25.43,25.43,0,0,1,5.79-.68,29.06,29.06,0,0,0-5.36,1.88,34.1,34.1,0,0,0-12.39,10.8c-1.1,1.47-2.23,2.91-3.32,4.41a65.45,65.45,0,0,0-6.61,12.25c-.16.39-.63,1.55-.78,1.94l-.12.34-.07.17a2,2,0,1,1-3.61-1.58Z"/><path class="cls-2" d="M1362.27,497.14a1.65,1.65,0,0,1-1.84-1.08c-6.51-18.79-21.29-32.46-32.93-30.47a1.65,1.65,0,1,1-.56-3.25c13.39-2.29,29.47,12,36.61,32.63a1.65,1.65,0,0,1-1,2.1A1.34,1.34,0,0,1,1362.27,497.14Z"/><path class="cls-2" d="M1340.41,389.12l10.88-1.74-9.56,5.48a2,2,0,1,1-1.32-3.74Z"/><path class="cls-2" d="M1365,425c-10,1.71-21.46-.87-22.2-1a2,2,0,0,1,.89-3.87c6.92,1.6,26,3.86,30.87-4.71a2,2,0,1,1,3.44,2C1375.41,421.85,1370.43,424,1365,425Z"/><path class="cls-2" d="M1335,391.88l-2-8.72,5.56,7a2,2,0,1,1-3.58,1.71Z"/><path class="cls-2" d="M1269.2,411.12a69.33,69.33,0,0,1,0-8.77,42.8,42.8,0,0,1,1.38-8.51,48.16,48.16,0,0,0,1.42,12.55c.31,1.35.66,2.74,1,4a2,2,0,1,1-3.9.72Z"/><g class="cls-3"><path class="cls-2" d="M1376.29,416.34c13.38,27.32,13.57,50.26-7.47,66.18l-16.48,31.37a17.13,17.13,0,0,1-21.67,7.93c-7.23-3-14.07-9.77-18.85-17.32.72.41,1.46.85,2.21,1.35,25.57,16.83,18.19-12.61,18.19-12.61,24.3,14.67,8.18-13.54,7.93-14l8.89,4.81s1-5.2,15-22.38,1.4-32.61,1.4-32.61c-11.27,4.3-26.11-1.95-26.06-1.7s-10.85.48-11.21.82-1.6-8.78-1.6-8.78l17.76,2.81,3.54-16.27c4.42-.82,14.19-2.53,14.19-2.53,7.15-25.22-15.69-34.46-15.69-34.46-23.31,15.4-55.62,12.61-56.82,12.48l15.94-17.83a194.51,194.51,0,0,1,20.52-3.36l15.77-3.56s14.19,1.54,23.61,13.13S1380.82,403.69,1376.29,416.34Z"/></g><g class="cls-3"><path class="cls-2" d="M1384,347.46l-.17,0C1383.92,347.38,1384,347.46,1384,347.46Z"/></g><circle class="cls-1" cx="1289.85" cy="306.6" r="73.59"/><g class="cls-3"><path class="cls-2" d="M1362.06,320.76a73.6,73.6,0,0,1-119.66,42.11A73.61,73.61,0,0,0,1322,240.36,73.62,73.62,0,0,1,1362.06,320.76Z"/></g><path class="cls-2" d="M1227.25,345.93c5.66,8.65,14.18,17.52,27,25.11,35.76,15.89,77.59.22,88.27-47.35l-9.19-36.34a40.81,40.81,0,0,0-11.73-14.41c-31.56-25.37-103.72-24.24-105.34,35.64C1216.27,308.58,1214.65,326.67,1227.25,345.93Z"/><g class="cls-7"><path class="cls-8" d="M1227.25,345.93c5.66,8.65,14.18,17.52,27,25.11,35.76,15.89,77.59.22,88.27-47.35l-9.19-36.34a40.81,40.81,0,0,0-11.73-14.41c18.32,48.69-34.76,110.48-93.87,73.14Z"/></g><path class="cls-2" d="M1299.56,381.28c-1.4.24-2.84.44-4.31.59a1.86,1.86,0,1,1-.39-3.69c18.58-1.94,33.17-11.31,43.38-27.85a79.46,79.46,0,0,0,9.83-24.31l-9.31-45.15c-9.87-14.9-26.47-25.41-46.79-29.6-20.8-4.3-42-1.06-56.72,8.67a1.85,1.85,0,0,1-2-3.09c15.52-10.27,37.77-13.71,59.52-9.22,21.43,4.42,39,15.61,49.34,31.5a2,2,0,0,1,.27.65l9.46,45.85a2.06,2.06,0,0,1,0,.7,80.9,80.9,0,0,1-10.33,25.84C1334.45,363.57,1321.59,377.51,1299.56,381.28Z"/><path class="cls-2" d="M1292.49,377.93a67.91,67.91,0,0,1-39-5.23,1.82,1.82,0,0,1,1.48-3.32c17.65,7.84,36.87,7.76,52.75-.22,16.4-8.24,28.08-24.37,32.91-45.45l-9-35.75c-4.63-9.86-15.36-18.49-29.47-23.71s-30.12-6.55-44-3.7c-14.57,3-39.13,13.24-40.08,48.08a1.81,1.81,0,0,1-1.86,1.77,1.83,1.83,0,0,1-1.77-1.86c.74-27.28,16.4-46.07,43-51.54,31.08-6.4,67.31,7.43,77.56,29.59a2,2,0,0,1,.12.31l9.19,36.34a1.88,1.88,0,0,1,0,.85c-5,22.36-17.42,39.52-34.92,48.32A60,60,0,0,1,1292.49,377.93Z"/><path class="cls-2" d="M1302.67,381.37a76,76,0,1,1,29.47-11.84A75.69,75.69,0,0,1,1302.67,381.37Zm-24.89-145.14a71.38,71.38,0,1,0,82.1,84.1l2.18.43-2.18-.43a71.45,71.45,0,0,0-82.1-84.1Z"/><path class="cls-1" d="M1365.69,299.29c2.39,13-2.28,24.57-12.37,26.43s-20.22-7.15-22.62-20.12,3.85-25,13.94-26.88S1363.29,286.32,1365.69,299.29Z"/><g class="cls-3"><path class="cls-2" d="M1353.32,325.72c-10.1,1.86-20.22-7.14-22.62-20.12a29.19,29.19,0,0,1,.18-11.77c3.55,10.7,12.57,17.65,21.55,16,6.67-1.24,11-6.72,12.43-14.05a35.9,35.9,0,0,1,.83,3.51C1368.08,312.27,1363.42,323.85,1353.32,325.72Z"/></g><path class="cls-2" d="M1353.5,328c-5.5.94-11.13-.85-15.86-5.06a29.8,29.8,0,0,1-9.13-16.89c-2.62-14.17,4.44-27.39,15.73-29.47,5.5-1,11,.88,15.4,5.35,4,4.1,7,10.14,8.24,17,2.73,14.8-3.22,27-14.16,29Zm-8.29-47.07-.16,0c-8.88,1.64-14.33,12.53-12.16,24.28a25.34,25.34,0,0,0,7.71,14.37c3.75,3.33,8.12,4.74,12.31,4,8.4-1.55,12.85-11.57,10.59-23.83-1.11-6-3.61-11.22-7-14.69C1354.13,282.64,1350.29,280,1345.21,280.88Z"/><path class="cls-2" d="M1359.17,323.14c-8.85,1.52-17.85-7.12-20.11-19.35a27.7,27.7,0,0,1,1.66-16.37c2.25-4.94,5.93-8.11,10.37-8.92a11.42,11.42,0,0,1,2.74-.18l.24,0a1.87,1.87,0,0,1,1.5,2.16,1.85,1.85,0,0,1-2,1.52,8.68,8.68,0,0,0-1.84.13c-3.21.59-5.93,3-7.66,6.81a24,24,0,0,0-1.39,14.15c1.89,10.23,9,17.54,15.83,16.37l.12,0a8,8,0,0,0,2.6-.95,1.85,1.85,0,1,1,1.86,3.21,11.81,11.81,0,0,1-3.79,1.39Z"/><g class="cls-9"><path class="cls-6" d="M1264.86,271.08c-19.22,17.08-28.54,37.8-26.57,62.66a1.82,1.82,0,0,1-3.44.94c-14.27-29.52-14.46-57.12,28.4-66.74A1.82,1.82,0,0,1,1264.86,271.08Z"/></g><g class="cls-9"><path class="cls-6" d="M1314.47,309.27l-.38.1a7,7,0,0,1-8.25-4.35c-.14-.39-.28-.76-.42-1.12a6.9,6.9,0,0,1,3.9-9l.28-.11a7,7,0,0,1,8.72,3.34q.36.7.69,1.41A6.94,6.94,0,0,1,1314.47,309.27Z"/></g><g class="cls-9"><path class="cls-6" d="M1307.56,353.2h0a6.94,6.94,0,0,1-3.88-9.19,49.75,49.75,0,0,0,4-17.66,7,7,0,0,1,7.23-6.73l1,0a6.93,6.93,0,0,1,6.64,7.41,63.25,63.25,0,0,1-6.26,22.72A7,7,0,0,1,1307.56,353.2Z"/></g><g class="cls-3"><path class="cls-2" d="M1290,467.85s25.19,2.63,41.52-14.49l-6.46,14.41-2.73,2.57c-6.46,1.48-11.5,3.86-14.24,7.72A29.81,29.81,0,0,1,1290,467.85Z"/></g><g class="cls-3"><path class="cls-2" d="M1270.21,398.16s-6.88,8.64-8.66,23.85l7.6,11.05,1.72-1.64s-1.66-15.13-1.93-15.37,1.9-3.46,1.82-7.56a42.29,42.29,0,0,0-.54-6.56"/></g><path class="cls-2" d="M1241.87,488.52l4.57,6.94-7.26-4a2,2,0,1,1,2.69-2.91Z"/><path class="cls-2" d="M1356.43,363.31a2,2,0,0,1-2.08-2.9c7.26-13.38,21.89-13.77,22.5-13.78a2,2,0,0,1,.08,4c-.54,0-13,.41-19.09,11.71A2,2,0,0,1,1356.43,363.31Z"/><g class="cls-3"><path class="cls-2" d="M1354.07,344.88s-10.24,7,8.25,21.33c-6.58-4.77-13.16-8.25-19.73-9.4l6.87-11.69"/></g><path class="cls-6" d="M1220,403a13.88,13.88,0,0,1,.91,1.52,79.73,79.73,0,0,1-23.36,15.93,15,15,0,0,1-1.09-1.4.43.43,0,0,0,0-.07c-.15-.22-.29-.44-.43-.67a14.41,14.41,0,0,1-.83-1.61.14.14,0,0,1,0-.07,13.26,13.26,0,0,1-.81-2.5,14,14,0,0,1-.23-4.87,14.25,14.25,0,0,1,17.56-12.06,14.23,14.23,0,0,1,6.47,3.58l.16.15a15.75,15.75,0,0,1,1.2,1.36l.4.55Z"/><path class="cls-6" d="M1222.4,409.81a12.78,12.78,0,0,1,0,1.75,14.24,14.24,0,0,1-16.56,13.49,14.3,14.3,0,0,1-3.95-1.27,76.49,76.49,0,0,0,20.48-14Z"/><path class="cls-6" d="M1220.88,404.49a79.73,79.73,0,0,1-23.36,15.93,16.86,16.86,0,0,1-1.09-1.4l0-.07c-.15-.22-.29-.44-.43-.67a14.41,14.41,0,0,1-.83-1.61.14.14,0,0,1,0-.07,13.26,13.26,0,0,1-.81-2.5,14.26,14.26,0,0,1,4-13.36,14.06,14.06,0,0,0-1,3.81,14.16,14.16,0,0,0,1,7.38l0,.06a.34.34,0,0,0,.05.11c1.12,2.29,3.89,2.86,6.36,2.2,4.7-1.25,14.09-8.61,16.07-10.28C1221.06,404.37,1220.69,404.14,1220.88,404.49Z"/><path class="cls-6" d="M1212.73,417.63a70.68,70.68,0,0,0,9.67-7.82,12.78,12.78,0,0,1,0,1.75,62.54,62.54,0,0,1-9,7.3,63.5,63.5,0,0,1-9.77,5.62,14.66,14.66,0,0,1-1.69-.7A70.88,70.88,0,0,0,1212.73,417.63Z"/><path class="cls-6" d="M1219.86,402.81l.11.16a13.12,13.12,0,0,1,.91,1.53,64.61,64.61,0,0,1-11,9,63.73,63.73,0,0,1-12.39,6.92,15,15,0,0,1-1.09-1.4.43.43,0,0,0,0-.07c2.69-.79,7.41-3.29,12.46-6.74C1214.1,408.63,1218.28,405,1219.86,402.81Z"/><path class="cls-6" d="M1194.35,414.58l-.11-.95c1.93-.24,6.65-2.71,11.48-6,5.77-3.93,9.33-7.36,9.88-8.71l.89.36c-.72,1.79-4.83,5.46-10.23,9.14C1201.24,411.85,1196.45,414.32,1194.35,414.58Z"/><path class="cls-6" d="M1194.22,409.69l-.31-.92a43.87,43.87,0,0,0,9.15-5,42.35,42.35,0,0,0,8.19-6.85l.75.59a42.83,42.83,0,0,1-8.4,7.06A45.79,45.79,0,0,1,1194.22,409.69Z"/><path class="cls-6" d="M1195.19,417.08l-.17-.95c2.2-.37,7.08-2.94,12.14-6.4,5.31-3.62,9.63-7.4,10.51-9.19l.86.42c-1,2-5.31,5.8-10.83,9.57C1202.45,414.1,1197.54,416.68,1195.19,417.08Z"/><path class="cls-6" d="M1205.93,425.28l-.06-.23-.15-.19,0,0h0c1.87-.47,5.29-2.27,8.69-4.6s6.28-4.78,7.43-6.37l.39.28c-1.18,1.64-4.08,4.13-7.55,6.49S1207.88,424.79,1205.93,425.28Z"/><path class="cls-6" d="M1222.4,409.81a14.25,14.25,0,0,1-20.48,14,76.49,76.49,0,0,0,20.48-14Z"/><path class="cls-6" d="M1227.78,400.08c1.18,1.73-1,5.47-5.38,9.73a76.49,76.49,0,0,1-20.48,14c-5.56,2.48-9.85,3.18-11,1.46s.67-4.8,4.24-8.57a14.41,14.41,0,0,0,.83,1.61c-1,1.13-1.4,2-1.13,2.36s1.24.3,2.69-.22a79.73,79.73,0,0,0,23.36-15.93c1-1.16,1.46-2,1.19-2.42s-1.21-.3-2.61.19a15.75,15.75,0,0,0-1.2-1.36C1223.08,399,1226.71,398.52,1227.78,400.08Z"/><path class="cls-6" d="M1195.84,418.07l.12.21c-1,1.13-1.4,2-1.13,2.36s1.24.3,2.69-.22a47.11,47.11,0,0,0,7.55-3.82,2,2,0,0,0,.14.79c-1.17.69-2.31,1.31-3.41,1.86-4.74,2.4-7.35,2.82-7.77,2.2C1193.78,421.09,1194.13,420,1195.84,418.07Z"/><path class="cls-6" d="M1195.35,417.45l.14.13a22.34,22.34,0,0,0-2,2.53A11.52,11.52,0,0,1,1195.35,417.45Z"/><path class="cls-6" d="M1195.64,417.71l-.15-.13s0,0,0-.05Z"/><path class="cls-6" d="M1193.46,420.11a1.75,1.75,0,0,0-.07,1.78,1.69,1.69,0,0,0,1.52.59c1.83,0,4.77-1.28,7.24-2.53q1.69-.85,3.51-1.92a2.52,2.52,0,0,0,1.21.56c-1.77,1.05-3.52,2-5.16,2.76-5.87,2.78-8.63,2.77-9.21,1.92C1192.18,422.8,1192.35,421.77,1193.46,420.11Z"/><path class="cls-6" d="M1212.49,417.79a70.76,70.76,0,0,1-10.57,6c-5.56,2.48-9.85,3.18-11,1.46s.67-4.8,4.24-8.57c.08.16.15.32.23.49l-.29-.27c-2.07,2.23-4.31,5.22-3.21,6.82a2.47,2.47,0,0,0,2.2.85c2.32,0,5.74-1.45,8-2.51a66.92,66.92,0,0,0,6.2-3.38A16.67,16.67,0,0,0,1212.49,417.79Z"/><path class="cls-6" d="M1205.66,418q-1.82,1.07-3.51,1.92c-2.47,1.25-5.41,2.5-7.24,2.53a1.69,1.69,0,0,1-1.52-.59,1.75,1.75,0,0,1,.07-1.78,22.34,22.34,0,0,1,2-2.53l.15.13c.06.12.13.24.2.36-1.71,1.95-2.06,3-1.81,3.38.42.62,3,.2,7.77-2.2,1.1-.55,2.24-1.17,3.41-1.86a2.16,2.16,0,0,0,.17.34A1.58,1.58,0,0,0,1205.66,418Z"/><path class="cls-6" d="M1195.49,417.58a22.34,22.34,0,0,0-2,2.53,11.52,11.52,0,0,1,1.89-2.66Z"/><path class="cls-6" d="M1195.64,417.71l.29.26-.09.1C1195.77,418,1195.7,417.83,1195.64,417.71Z"/><path class="cls-6" d="M1218.74,408.63a79.23,79.23,0,0,1-8,6.16c-1.73,1.17-3.46,2.27-5.13,3.24a1.58,1.58,0,0,1-.28-.3,2.16,2.16,0,0,1-.17-.34c1.68-1,3.41-2.07,5.14-3.25a79.28,79.28,0,0,0,7.88-6.08c4-3.55,5.31-5.82,4.89-6.44-.26-.37-1.42-.43-3.94.5l-.21-.55-.06-.18a11.72,11.72,0,0,1,3.17-.8,1.79,1.79,0,0,1,1.68.59C1224.8,402.71,1221.6,406.08,1218.74,408.63Z"/><path class="cls-6" d="M1208.24,418.67a66.92,66.92,0,0,1-6.2,3.38c-2.24,1.06-5.66,2.48-8,2.51a2.47,2.47,0,0,1-2.2-.85c-1.1-1.6,1.14-4.59,3.21-6.82l.29.27.18.37s0,0,0,.05l-.14-.13a11.52,11.52,0,0,0-1.89,2.66c-1.11,1.66-1.28,2.69-1,3.16.58.85,3.34.86,9.21-1.92,1.64-.78,3.39-1.71,5.16-2.77A5.87,5.87,0,0,0,1208.24,418.67Z"/><path class="cls-6" d="M1195.35,417.45l.14.13a22.34,22.34,0,0,0-2,2.53A11.52,11.52,0,0,1,1195.35,417.45Z"/><path class="cls-6" d="M1195.36,417.16l.28.26-.1.11Z"/><path class="cls-6" d="M1220.74,409.3a74,74,0,0,1-8.89,7c-1.2.82-2.41,1.6-3.61,2.33a5.87,5.87,0,0,1-1.37-.09c1.5-.88,3-1.85,4.54-2.88a73.47,73.47,0,0,0,8.8-7c4.73-4.45,5.74-7,5.16-7.87-.32-.47-1.35-.69-3.29-.27a23,23,0,0,0-3.11,1l-.2.08-.29-.73c2.83-1.11,6.44-2.1,7.53-.5C1227.43,402.5,1223.32,406.87,1220.74,409.3Z"/><path class="cls-6" d="M1227.78,400.08c1.18,1.73-1,5.47-5.38,9.73a76.49,76.49,0,0,1-20.48,14c-5.56,2.48-9.85,3.18-11,1.46s.67-4.8,4.24-8.57a14.41,14.41,0,0,0,.83,1.61c-1,1.13-1.4,2-1.13,2.36s1.24.3,2.69-.22a79.73,79.73,0,0,0,23.36-15.93c1-1.16,1.46-2,1.19-2.42s-1.21-.3-2.61.19a15.75,15.75,0,0,0-1.2-1.36C1223.08,399,1226.71,398.52,1227.78,400.08Z"/><g class="cls-10"><path class="cls-6" d="M1220.89,404.54c-.23.26-.48.54-.77.83-.19-.35-.41-.69-.63-1l-.11-.15c-.13-.19-.27-.38-.41-.56a15.44,15.44,0,0,0-1.19-1.36l-.16-.15a14.23,14.23,0,0,0-6.47-3.58,14.24,14.24,0,0,0-16.52,8.21,14.24,14.24,0,0,1,17-9.55,14.4,14.4,0,0,1,4.42,1.94,14.06,14.06,0,0,1,2.06,1.65l.15.15a15.75,15.75,0,0,1,1.2,1.36c.14.18.27.36.4.55a.91.91,0,0,1,.11.16A13.88,13.88,0,0,1,1220.89,404.54Z"/></g><path class="cls-6" d="M1220,403a13.88,13.88,0,0,1,.91,1.52,79.73,79.73,0,0,1-23.36,15.93,15,15,0,0,1-1.09-1.4c-.16-.24-.32-.49-.47-.74a14.41,14.41,0,0,1-.83-1.61,14.25,14.25,0,0,1,23.13-15.77,15.75,15.75,0,0,1,1.2,1.36Z"/><path class="cls-11" d="M1218.93,403.72a13.91,13.91,0,0,1,.82,1.38,72.91,72.91,0,0,1-21.13,14.41,13.89,13.89,0,0,1-1-1.27l0-.06c-.13-.2-.26-.4-.38-.61a11.08,11.08,0,0,1-.75-1.45l0-.06a13.33,13.33,0,0,1-.73-2.27,12.89,12.89,0,0,1,15.68-15.32,13.07,13.07,0,0,1,4,1.75,12.53,12.53,0,0,1,1.86,1.49l.14.14a12.84,12.84,0,0,1,1.08,1.23c.13.16.25.33.37.5Z"/><path class="cls-12" d="M1221.12,409.91a11.91,11.91,0,0,1,0,1.58,13.39,13.39,0,0,1-.28,2.19,12.87,12.87,0,0,1-14.71,10,11.94,11.94,0,0,1-2-.51,13.81,13.81,0,0,1-1.54-.63,64.62,64.62,0,0,0,9.78-5.56A64,64,0,0,0,1221.12,409.91Z"/><path class="cls-12" d="M1219.75,405.1a72.91,72.91,0,0,1-21.13,14.41,13.89,13.89,0,0,1-1-1.27l0-.06c-.13-.2-.26-.4-.38-.61a11.08,11.08,0,0,1-.75-1.45l0-.06a13.33,13.33,0,0,1-.73-2.27,12.88,12.88,0,0,1,3.64-12.09,12.6,12.6,0,0,0-.93,3.45,12.85,12.85,0,0,0,.2,4.41,13,13,0,0,0,.74,2.26l0,.07.05.09c1,2.07,3.52,2.59,5.76,2,4.25-1.13,12.74-7.79,14.53-9.3C1219.91,405,1219.58,404.78,1219.75,405.1Z"/><path class="cls-13" d="M1212.37,417a64,64,0,0,0,8.75-7.08,11.91,11.91,0,0,1,0,1.58,57,57,0,0,1-8.19,6.61,58.2,58.2,0,0,1-8.84,5.08,13.81,13.81,0,0,1-1.54-.63A64.62,64.62,0,0,0,1212.37,417Z"/><path class="cls-13" d="M1218.83,403.58l.1.14a13.91,13.91,0,0,1,.82,1.38,72.91,72.91,0,0,1-21.13,14.41,13.89,13.89,0,0,1-1-1.27l0-.06c2.43-.71,6.7-3,11.28-6.1C1213.62,408.84,1217.39,405.57,1218.83,403.58Z"/><path class="cls-13" d="M1195.75,414.22l-.1-.86c1.74-.21,6-2.44,10.39-5.42,5.21-3.56,8.44-6.66,8.93-7.88l.81.32c-.65,1.62-4.37,4.94-9.25,8.27C1202,411.75,1197.65,414,1195.75,414.22Z"/><path class="cls-13" d="M1195.63,409.8l-.27-.83a40.14,40.14,0,0,0,8.27-4.57,38.13,38.13,0,0,0,7.41-6.2l.68.54a38.75,38.75,0,0,1-7.6,6.38A41.42,41.42,0,0,1,1195.63,409.8Z"/><path class="cls-13" d="M1196.51,416.48l-.15-.85c2-.34,6.4-2.67,11-5.79,4.8-3.27,8.71-6.7,9.51-8.32l.78.39c-.87,1.77-4.81,5.24-9.8,8.65C1203.08,413.79,1198.64,416.12,1196.51,416.48Z"/><path class="cls-13" d="M1206.22,423.9l0-.21-.13-.17,0,0h0a30.84,30.84,0,0,0,7.86-4.16,30.37,30.37,0,0,0,6.72-5.77l.36.26a31.39,31.39,0,0,1-6.83,5.87A30.71,30.71,0,0,1,1206.22,423.9Z"/><path class="cls-2" d="M1210.55,424.21a13.48,13.48,0,0,1-8.19-1.18l-1-.51,1.05-.47a68.78,68.78,0,0,0,18.37-12.52l.82-.81.09,1.15a13.43,13.43,0,0,1-11.11,14.34Zm-6.64-1.68a12.35,12.35,0,0,0,16.72-11.4,66.44,66.44,0,0,1-8,6.3A68.11,68.11,0,0,1,1203.91,422.53Z"/><path class="cls-14" d="M1226,401.11c1.07,1.56-.94,4.94-4.87,8.8a64,64,0,0,1-8.75,7.08,64.62,64.62,0,0,1-9.78,5.56c-5,2.24-8.91,2.88-10,1.32s.6-4.34,3.84-7.75a11.08,11.08,0,0,0,.75,1.45c-.88,1-1.27,1.78-1,2.14s1.13.27,2.44-.2a72.91,72.91,0,0,0,21.13-14.41c.91-1.05,1.32-1.83,1.07-2.19s-1.09-.28-2.36.17a12.84,12.84,0,0,0-1.08-1.23C1221.74,400.09,1225,399.69,1226,401.11Z"/><path class="cls-15" d="M1197.09,417.38l.12.19c-.88,1-1.27,1.78-1,2.14s1.13.27,2.44-.2a42.8,42.8,0,0,0,6.83-3.46,2.05,2.05,0,0,0,.12.72c-1.06.62-2.09,1.18-3.08,1.68-4.29,2.17-6.65,2.55-7,2C1195.23,420.12,1195.55,419.14,1197.09,417.38Z"/><path class="cls-12" d="M1196.65,416.82l.13.12a19.13,19.13,0,0,0-1.84,2.29A10.52,10.52,0,0,1,1196.65,416.82Z"/><path class="cls-12" d="M1196.91,417.06l-.13-.12,0-.05Z"/><path class="cls-15" d="M1194.94,419.23a1.6,1.6,0,0,0-.06,1.61,1.53,1.53,0,0,0,1.38.53c1.65,0,4.31-1.16,6.55-2.29,1-.51,2.08-1.09,3.17-1.73a2.29,2.29,0,0,0,1.1.5c-1.61.95-3.18,1.79-4.67,2.5-5.32,2.51-7.81,2.51-8.34,1.74C1193.78,421.66,1193.94,420.73,1194.94,419.23Z"/><path class="cls-15" d="M1212.16,417.13a64.58,64.58,0,0,1-9.57,5.42c-5,2.24-8.91,2.88-10,1.32s.6-4.34,3.84-7.75l.2.44-.26-.25c-1.87,2-3.89,4.73-2.91,6.18a2.23,2.23,0,0,0,2,.76c2.11,0,5.2-1.31,7.23-2.27a62.24,62.24,0,0,0,5.61-3.05A15.31,15.31,0,0,0,1212.16,417.13Z"/><path class="cls-16" d="M1206,417.35c-1.09.64-2.16,1.22-3.17,1.73-2.24,1.13-4.9,2.27-6.55,2.29a1.53,1.53,0,0,1-1.38-.53,1.6,1.6,0,0,1,.06-1.61,19.13,19.13,0,0,1,1.84-2.29l.13.12.18.32c-1.54,1.76-1.86,2.74-1.63,3.06.38.56,2.74.18,7-2,1-.5,2-1.06,3.08-1.68a2.11,2.11,0,0,0,.16.3A1.32,1.32,0,0,0,1206,417.35Z"/><path class="cls-17" d="M1196.78,416.94a19.13,19.13,0,0,0-1.84,2.29,10.52,10.52,0,0,1,1.71-2.41Z"/><path class="cls-17" d="M1196.91,417.06l.27.23-.09.09Z"/><path class="cls-17" d="M1217.82,408.85a72.25,72.25,0,0,1-7.2,5.56c-1.56,1.06-3.13,2.06-4.64,2.94a1.32,1.32,0,0,1-.25-.28,2.11,2.11,0,0,1-.16-.3c1.52-.88,3.09-1.87,4.65-2.94a69.74,69.74,0,0,0,7.13-5.51c3.58-3.2,4.8-5.26,4.42-5.82-.23-.34-1.28-.39-3.56.45l-.18-.5-.07-.16a10.56,10.56,0,0,1,2.88-.72,1.58,1.58,0,0,1,1.51.53C1223.29,403.48,1220.41,406.53,1217.82,408.85Z"/><path class="cls-16" d="M1208.32,417.93a62.24,62.24,0,0,1-5.61,3.05c-2,1-5.12,2.24-7.23,2.27a2.23,2.23,0,0,1-2-.76c-1-1.45,1-4.16,2.91-6.18l.26.25.17.33,0,.05-.13-.12a10.52,10.52,0,0,0-1.71,2.41c-1,1.5-1.16,2.43-.87,2.86.53.77,3,.77,8.34-1.74,1.49-.71,3.06-1.55,4.67-2.5A5.91,5.91,0,0,0,1208.32,417.93Z"/><path class="cls-15" d="M1196.65,416.82l.13.12a19.13,19.13,0,0,0-1.84,2.29A10.52,10.52,0,0,1,1196.65,416.82Z"/><path class="cls-17" d="M1196.66,416.56l.26.23-.09.1C1196.77,416.78,1196.71,416.67,1196.66,416.56Z"/><path class="cls-17" d="M1219.63,409.44a66.35,66.35,0,0,1-8.05,6.38c-1.09.74-2.18,1.45-3.26,2.11a5.91,5.91,0,0,1-1.24-.08c1.35-.8,2.73-1.68,4.1-2.61a67.81,67.81,0,0,0,8-6.31c4.28-4,5.18-6.35,4.66-7.12-.29-.42-1.22-.62-3-.24a20.47,20.47,0,0,0-2.81.88l-.19.08-.26-.66c2.56-1,5.82-1.9,6.81-.45C1225.67,403.3,1222,407.25,1219.63,409.44Z"/><path class="cls-2" d="M1196.54,425.12c-1.9.33-3.59.19-4.36-.95-1.49-2.18,1.8-6.22,3.89-8.42l.56-.59.32.74a12.33,12.33,0,0,0,.72,1.4l.2.33-.25.3a4.1,4.1,0,0,0-1,1.45,4,4,0,0,0,1.78-.38,72,72,0,0,0,20.9-14.25,4.31,4.31,0,0,0,1-1.52,4.22,4.22,0,0,0-1.71.36l-.37.13-.23-.31a12.91,12.91,0,0,0-1-1.18l-.58-.57.76-.31c2.82-1.14,7.77-2.73,9.26-.54h0c1.65,2.41-2.39,7-4.94,9.49a66,66,0,0,1-8.82,7.13,65.09,65.09,0,0,1-9.87,5.61A28,28,0,0,1,1196.54,425.12Zm-.23-8.05c-3.22,3.54-3.81,5.67-3.24,6.49s3.46,1.11,9.31-1.51a68.78,68.78,0,0,0,18.37-12.52c4.56-4.49,5.44-7.18,4.8-8.12h0c-.56-.82-2.76-1.05-7.24.65l.34.39c1.43-.45,2.24-.4,2.62.15s.07,1.49-1.12,2.85A72.7,72.7,0,0,1,1198.8,420c-1.7.6-2.65.6-3.06,0s-.13-1.33.81-2.49Z"/><g class="cls-10"><path class="cls-6" d="M1219.76,405.14c-.21.24-.44.49-.7.75a10,10,0,0,0-.57-.92l-.1-.14-.36-.5a12.92,12.92,0,0,0-1.09-1.23,1.85,1.85,0,0,0-.14-.14,12.53,12.53,0,0,0-1.86-1.49,12.88,12.88,0,0,0-18.94,5.68,12.9,12.9,0,0,1,15.39-8.64,13.07,13.07,0,0,1,4,1.75,13.28,13.28,0,0,1,1.86,1.5l.14.13a15.83,15.83,0,0,1,1.08,1.23l.37.5a.71.71,0,0,0,.1.14A13.91,13.91,0,0,1,1219.76,405.14Z"/></g><path class="cls-2" d="M1198.46,420.14l-.25-.27a14.64,14.64,0,0,1-1-1.33c-.16-.23-.3-.46-.44-.69a12.89,12.89,0,0,1-.79-1.52,13.43,13.43,0,0,1,21.8-14.86,13.78,13.78,0,0,1,1.13,1.28c.16.22.33.44.48.67a13.89,13.89,0,0,1,.86,1.43l.16.33-.24.27A72.7,72.7,0,0,1,1198.8,420Zm7.73-21.33a12.33,12.33,0,0,0-8.52,18.49c.13.21.26.43.41.64s.45.63.7.93A73.68,73.68,0,0,0,1219.1,405c-.19-.34-.4-.67-.62-1h0c-.14-.21-.29-.41-.44-.61a12.91,12.91,0,0,0-1-1.18A12.33,12.33,0,0,0,1206.19,398.81Z"/></svg>