<svg id="Layer_1" data-name="Layer 1" xmlns="http://www.w3.org/2000/svg" viewBox="0 0 1920 1080"><defs><style>.cls-1{fill:#f8f8f8;}.cls-2{fill:#371a45;}.cls-3{opacity:0.25;}.cls-4{fill:#bcc4cc;}.cls-5{opacity:0.61;}.cls-6{fill:#fff;}.cls-7{opacity:0.7;}.cls-8{fill:#111a28;}.cls-9{opacity:0.5;}.cls-10{opacity:0.41;}.cls-11{fill:#ffb200;}.cls-12{fill:#ff9100;}.cls-13{fill:#d66b09;}.cls-14{fill:#ffd766;}.cls-15{fill:#ffaa39;}.cls-16{fill:#ffcf6e;}.cls-17{fill:#ffec90;}</style></defs><path class="cls-1" d="M1312.57,418.75c-1,.18-2,.42-3,.71-11.46,3.15-28.52,12.22-28.52,12.22l-15.45,33.43a4.52,4.52,0,0,1-4.91,2.53c-16.9-3.17-32.13-8.25-45.39-15.62a4.49,4.49,0,0,1-2.22-4.77c.14-.71.31-1.51.52-2.37,1.15-4.77,3.45-11.43,7.77-15.13,7.25-6.19,19.18-1.54,19.18-1.54s10.83-23.68,14.67-29.78,18.68-15.34,18.68-15.34l32,15.28S1323.75,416.65,1312.57,418.75Z"/><path class="cls-1" d="M1408,373.6a15.94,15.94,0,0,1-1.82,10.28c-4.09,7.34-13.61,19.6-32,21.1-4.21.35-8.34-1.9-12.32-5.91-21.07-21.21-37.91-91.94-37.91-91.94l20.16-23.26s23-3.12,32.74,3c4.23,2.66,9.76,12.93,15.12,26.94,2.67,7,5.3,14.87,7.7,23.21,1.91,6.64,3.67,13.57,5.2,20.53C1406.1,362.89,1407.14,368.29,1408,373.6Z"/><path class="cls-2" d="M1378.29,406.47c-1.26.21-2.56.38-3.91.49-12,1-24.41-15.64-37-49.4a484.63,484.63,0,0,1-15.28-50,2,2,0,0,1,3.86-.92,478.16,478.16,0,0,0,15.14,49.53c11.6,31,23.31,47.6,33,46.81,17.5-1.44,26.56-13.21,30.41-20.1a14,14,0,0,0,1.59-9c-6.47-39.83-22-80.25-30.22-85.4-9-5.63-31.19-2.72-31.42-2.69a2,2,0,0,1-.53-3.93c1-.13,23.88-3.13,34.06,3.26s25.7,49.19,32,88.12a17.9,17.9,0,0,1-2,11.56C1404,391.9,1395.08,403.6,1378.29,406.47Z"/><path class="cls-1" d="M1404.91,357.52c-6.51,6-18.66,11.56-24.21,8.69L1376.86,340l-1.93-13.15s8-8.33,17.08-13.11c4.18-2.2,7.76,3.86,10.58,11.7,0,.1.07.2.11.31,3.23,9.07,5.45,20.36,6.44,24C1409.72,351.91,1407.92,354.76,1404.91,357.52Z"/><path class="cls-2" d="M1387.39,368.7a12.15,12.15,0,0,1-7.6-.72,2,2,0,0,1,1.82-3.53c3.8,2,13.4-1.39,20.55-7.18,3.93-3.17,5.38-5.84,5.07-7s-.63-2.51-1.07-4.42c-1.79-7.66-6.53-28-11.75-30.4a1.51,1.51,0,0,0-1.47.07c-8.64,4.56-16.51,12.64-16.58,12.73a2,2,0,0,1-2.81,0,2,2,0,0,1,0-2.8c.34-.35,8.37-8.61,17.59-13.48a5.48,5.48,0,0,1,5-.17c6.45,2.95,10.59,18.64,14,33.11.44,1.87.78,3.35,1,4.27.86,3.14-1.41,7.08-6.39,11.12C1400.31,363.87,1393.41,367.67,1387.39,368.7Z"/><g class="cls-3"><path class="cls-2" d="M1404.91,357.52c1.19,5.37,2.23,10.77,3.1,16.08a15.94,15.94,0,0,1-1.82,10.28c-4.09,7.34-13.61,19.6-32,21.1-4.21.35-8.34-1.9-12.32-5.91-1.51-10.61-.17-11.64-.75-22.11-.64-11.34.29-18.94,1.46-20.81L1376.86,340l.68-.77s1.65,6.09,10.09,4.34a23.89,23.89,0,0,0,12.08-6.62c2.93-3.13,4.47-7.05,3-11.2,3.23,9.07,5.45,20.36,6.44,24C1409.72,351.91,1407.92,354.76,1404.91,357.52Z"/></g><path class="cls-2" d="M1399.52,320.14c-2.86,1.44-5.74,3-8.46,4.7-1.85,1.23-4,2.5-5.31,4.23a1.36,1.36,0,0,0-.11.2s0,0,0,.08a10.59,10.59,0,0,0,.06,1.48c.35,3.18,1,6.42,1.64,9.63s1.34,6.42,2.07,9.62c-1-3.12-2-6.24-3-9.39s-1.91-6.27-2.62-9.57a13.47,13.47,0,0,1-.23-1.69,2.77,2.77,0,0,1,.3-1.36c1.39-2.44,3.54-3.91,5.58-5.6,2.66-2,5.39-3.9,8.23-5.69a1.93,1.93,0,1,1,1.88,3.36Z"/><path class="cls-2" d="M1262.59,469.6a6.3,6.3,0,0,1-2.29,0c-17.51-3.27-33-8.59-46-15.83a6.45,6.45,0,0,1-3.21-6.89c1-4.91,3.4-13.86,9-18.61,6.36-5.44,15.56-3.59,19.41-2.47,2.53-5.49,10.73-23.13,14-28.41,4-6.41,18.69-15.57,19.31-16a2,2,0,0,1,2.1,3.37c-4,2.5-15.1,10-18.05,14.71-3.73,5.91-14.44,29.31-14.54,29.55a2,2,0,0,1-2.53,1c-.1,0-10.93-4.13-17.17,1.2-4.64,4-6.77,12-7.63,16.36a2.48,2.48,0,0,0,1.24,2.66c12.63,7,27.7,12.21,44.79,15.41a2.51,2.51,0,0,0,2.74-1.42l15.45-33.42a2,2,0,0,1,.87-.92c.84-.45,20.78-11,32.12-13.13,1.69-.32,1.9-1,2-1.19,1-3-5.25-11.25-9.76-15.85a2,2,0,0,1,2.84-2.78c2.14,2.19,12.73,13.42,10.71,19.83-.45,1.43-1.69,3.26-5,3.89-9.71,1.82-27,10.66-30.4,12.43l-15.17,32.81A6.47,6.47,0,0,1,1262.59,469.6Z"/><g class="cls-3"><path class="cls-2" d="M1311.81,409.67c.21,1.22-.49,2-1,4.64-.22,1.08-.67,3-1.25,5.15-11.46,3.15-28.52,12.22-28.52,12.22l-15.45,33.43a4.52,4.52,0,0,1-4.91,2.53c-16.9-3.17-32.13-8.25-45.39-15.62a4.49,4.49,0,0,1-2.22-4.77c.14-.71.31-1.51.52-2.37l5.79,2.19c20,6.82,33.4,5.24,37.77-7.95,0,0,9.6-18.94,18.36-27.59a20.5,20.5,0,0,0,5.54-19.47l27.29,15.14C1309.25,407.74,1311.6,408.45,1311.81,409.67Z"/></g><path class="cls-2" d="M1281.43,432.73a1.67,1.67,0,0,1-.39,0c-20.68-1.43-35.35-14.91-36-15.48a1.65,1.65,0,0,1,2.25-2.42c.16.15,14.47,13.26,33.94,14.61a1.65,1.65,0,0,1,.16,3.27Z"/><path class="cls-1" d="M1234.74,397.5s14.83-5.78,25.48-16.81l-29.54,7.4"/><g class="cls-3"><path class="cls-2" d="M1234.74,397.5s14.83-5.78,25.48-16.81l-29.54,7.4"/></g><path class="cls-2" d="M1235.07,399.46a2,2,0,0,1-1-3.8c.14-.06,14.57-5.78,24.78-16.35a2,2,0,1,1,2.85,2.75c-10.83,11.22-25.57,17.05-26.19,17.29A1.9,1.9,0,0,1,1235.07,399.46Z"/><path class="cls-1" d="M1368.82,420.75l-16.48,31.38a17.11,17.11,0,0,1-21.67,7.92c-7.23-3-14.07-9.77-18.85-17.31-3.59-5.64-6-11.73-6.64-17a10.22,10.22,0,0,1,.92-5.47l1.63-3.56s-20.08-2.55-29.29-31.63l-1.33-7.78s-10,1-11-.13-15.55-31.23-15.55-31.23,9-22.38,25.53-33.3c7.81-5.15,19.35-8.58,29.36-10.78a194.51,194.51,0,0,1,20.52-3.36l15.77-3.56s14.19,1.54,23.61,13.13,15.47,33.87,10.94,46.53C1389.67,381.89,1389.86,404.84,1368.82,420.75Z"/><path class="cls-2" d="M1340.27,463a18.63,18.63,0,0,1-10.36-1.15c-14-5.81-25.27-23.6-26.7-35.93a12.22,12.22,0,0,1,1.09-6.53l.61-1.34c-6-1.74-20.75-8.37-28.36-32.42a2.68,2.68,0,0,1-.07-.27l-1-6c-9.39.82-10.36-.37-10.89-1-1-1.18-10.31-20.31-15.8-31.61a2,2,0,0,1-.06-1.61c.38-.93,9.42-23.08,26.29-34.22s49.4-14.32,50.78-14.45a2,2,0,1,1,.38,3.94c-.32,0-33,3.31-49,13.83-14.1,9.3-22.68,27.57-24.45,31.59,5.18,10.64,13.13,26.83,14.76,29.74a51.3,51.3,0,0,0,9.42-.3,2,2,0,0,1,2.15,1.64l1.31,7.64c8.74,27.43,27.43,30.11,27.61,30.14a2,2,0,0,1,1.56,2.79l-1.64,3.56a8.27,8.27,0,0,0-.75,4.41c1.3,11.21,12,27.6,24.29,32.73a15.21,15.21,0,0,0,19.14-7l16.49-31.37a1.87,1.87,0,0,1,.56-.66c18.7-14.15,20.95-35,6.88-63.72a2,2,0,0,1-.09-1.54c4-11.26-1.12-32.94-10.61-44.61-8.77-10.79-22.15-12.4-22.29-12.41a2,2,0,0,1,.43-3.95c.62.07,15.12,1.77,24.94,13.86,9.2,11.31,15.93,33.82,11.54,47.64,7,14.41,9.9,26.73,9,37.66-1,11.93-6.72,22-17.07,30l-16.28,31A19.25,19.25,0,0,1,1340.27,463Z"/><path class="cls-1" d="M1286.59,345.65l41.24-7.06a6.8,6.8,0,0,1,7.84,5.55l4.27,25a6.8,6.8,0,0,1-5.38,7.81L1293.49,385a6.78,6.78,0,0,1-8-5.51l-4.45-26A6.79,6.79,0,0,1,1286.59,345.65Z"/><path class="cls-2" d="M1293.65,387a8.76,8.76,0,0,1-10.12-7.17l-4.45-26a8.79,8.79,0,0,1,7.17-10.13l41.24-7.05a8.78,8.78,0,0,1,10.13,7.17l4.28,25a8.73,8.73,0,0,1-7,10.09L1293.87,387Zm-6.73-39.39a4.83,4.83,0,0,0-3.93,5.56l4.45,26a4.81,4.81,0,0,0,5.67,3.91l41.07-8.08a4.79,4.79,0,0,0,3.81-5.53l-4.28-25a4.8,4.8,0,0,0-5.55-3.93l-41.24,7.05Z"/><path class="cls-1" d="M1274.78,348.13l41.24-7.05a6.79,6.79,0,0,1,7.84,5.55l4.27,25a6.78,6.78,0,0,1-5.38,7.81l-41.07,8.08a6.79,6.79,0,0,1-8-5.52l-4.45-26A6.8,6.8,0,0,1,1274.78,348.13Z"/><path class="cls-2" d="M1310.14,383.85a1.92,1.92,0,0,1-2.21-1.52c-.66-3.34-1.66-8.58-2-11.31-3.1-.23-12.22.12-20.38.66a1.94,1.94,0,0,1-2-1.51l-5-22.59a1.93,1.93,0,0,1,3.76-.83l4.63,21c20.4-1.3,21.44-.28,22.07.34a2,2,0,0,1,.61,1.57c0,.85,1.08,6.75,2.1,11.94a1.93,1.93,0,0,1-1.52,2.26Zm-3.33-12.7h0Zm-1-1.7a.29.29,0,0,0,0,.13A.56.56,0,0,1,1305.77,369.45Zm0,0Z"/><path class="cls-2" d="M1281.85,389.48a8.78,8.78,0,0,1-10.13-7.18l-4.44-26a8.78,8.78,0,0,1,7.17-10.13l41.24-7.06a8.79,8.79,0,0,1,10.13,7.17l4.27,25a8.73,8.73,0,0,1-7,10.09l-41.06,8.08Zm-6.73-39.39a4.81,4.81,0,0,0-3.93,5.55l4.44,26a4.81,4.81,0,0,0,5.67,3.9l41.07-8.08a4.78,4.78,0,0,0,3.81-5.53l-4.27-25a4.83,4.83,0,0,0-5.55-3.93l-41.25,7.06Z"/><path class="cls-4" d="M1325.53,364.18l.34,2.89a3.62,3.62,0,0,1-2.86,4l-52.16,10.85-72.08,15a3.63,3.63,0,0,1-4.3-2.83l-.6-3a3.62,3.62,0,0,1,.84-3.13h0a3.58,3.58,0,0,1,2-1.15l71.91-14.88.14,0,52.45-10.86A3.62,3.62,0,0,1,1325.53,364.18Z"/><g class="cls-5"><path class="cls-6" d="M1325.53,364.18l.24,2a3.64,3.64,0,0,0-4.06-2.09l-52.4,10.85-.59-3,52.47-10.86A3.62,3.62,0,0,1,1325.53,364.18Z"/></g><path class="cls-4" d="M1270.92,381.6h-.13L1194.72,388h0l-3.91-5.74-29.74-43.65a3.73,3.73,0,0,1-.26-3.81l1.29-2.58a3.78,3.78,0,0,1,2.55-2l62.26-14.07a10.07,10.07,0,0,1,10.86,4.63l.18.3,30.66,50.88,1.32,5.53Z"/><g class="cls-5"><path class="cls-6" d="M1268.81,372.83l-29.37-48.73a10.05,10.05,0,0,0-10.85-4.63l-62.27,14.07a3.79,3.79,0,0,0-2.54,2l-1.29,2.58a3.69,3.69,0,0,0-.39,2l-1-1.53a3.73,3.73,0,0,1-.26-3.81l1.29-2.58a3.78,3.78,0,0,1,2.55-2l62.26-14.07a10.07,10.07,0,0,1,10.86,4.63l30.84,51.18Z"/></g><path class="cls-2" d="M1198.92,398.57a5.31,5.31,0,0,1-6.09-4.17l-.61-3a5.32,5.32,0,0,1,4.13-6.25h0l124.5-25.78a5.31,5.31,0,0,1,6.35,4.58l.34,2.89a5.28,5.28,0,0,1-4.19,5.81l-124.24,25.86Zm-1.89-10.1h0a2,2,0,0,0-1.52,2.29l.61,3a2,2,0,0,0,2.31,1.52l124.23-25.85a1.94,1.94,0,0,0,1.54-2.14l-.34-2.89a1.95,1.95,0,0,0-2.33-1.68Z"/><path class="cls-2" d="M1271.2,383.25a1.66,1.66,0,0,1-1.91-1.26l-2.26-9.41-30.71-51a8.4,8.4,0,0,0-9-3.86L1165,331.84a2.1,2.1,0,0,0-1.41,1.1l-1.29,2.58a2.09,2.09,0,0,0,.14,2.12L1196.1,387a1.68,1.68,0,0,1-2.78,1.89l-33.65-49.39a5.46,5.46,0,0,1-.37-5.52l1.29-2.57a5.48,5.48,0,0,1,3.67-2.88l62.27-14.07a11.76,11.76,0,0,1,12.67,5.4L1270,371.07a2.11,2.11,0,0,1,.19.47l2.32,9.67a1.67,1.67,0,0,1-1.24,2Z"/><g class="cls-3"><path class="cls-2" d="M1270.85,381.89l-72.08,15a3.63,3.63,0,0,1-4.3-2.83l-.6-3a3.62,3.62,0,0,1,.84-3.13l-3.91-5.74c33.5-6.6,52.57-22.44,44.94-53.22l-1.57-9.22,3.77,1.27,30.66,50.88.14,0c.43,2,.83,3.86,1.18,5.56.33,1.54.62,2.94.87,4.14C1270.82,381.71,1270.83,381.8,1270.85,381.89Z"/></g><path class="cls-1" d="M1206.67,397.8s1.1-12.56,14.2-12.66,18.25,12,10.09,18.18-36.75,10.29-37-12.93C1194,390.39,1196.17,396.81,1206.67,397.8Z"/><g class="cls-3"><path class="cls-2" d="M1231,403.32c-5.64,4.24-21,7.53-30.08,1.5,7.9.73,16.44-1.74,20.33-4.67,5.5-4.14,5-11,0-15C1234.06,385.25,1239.05,397.23,1231,403.32Z"/></g><path class="cls-2" d="M1220,409.52c-6,1-12.76.78-18.09-1.84-4.45-2.19-9.78-7-9.89-17.26a2,2,0,0,1,1.64-2h0a2,2,0,0,1,2.21,1.31c.07.17,1.79,4.53,9.2,5.83,1.21-5.13,5.51-12.35,15.83-12.43,7.43,0,13.49,3.61,15.42,9.34a10.87,10.87,0,0,1-4.13,12.41C1229.51,406.89,1225,408.65,1220,409.52Zm-23-12.83a12.78,12.78,0,0,0,6.65,7.43c8.35,4.11,21.27,1.29,26.15-2.39a7,7,0,0,0,2.76-8c-1-3.1-4.73-6.69-11.64-6.64-11.17.09-12.21,10.42-12.25,10.85a2,2,0,0,1-.7,1.36,2,2,0,0,1-1.46.45A20.53,20.53,0,0,1,1197,396.69Z"/><path class="cls-1" d="M1347.83,344.18c.32,6.18-1.3,12.51-4.57,16.05l-18.9-2.94s-3.39,5.61-14.21,6.34-17.56-9.21-17.56-9.21-2.92,10.21-9.07,7.35a5.62,5.62,0,0,1-3.08-3.22,9.27,9.27,0,0,1,0-5.27,16.36,16.36,0,0,1,2.62-5.49l8.47-11.76c6.65-12.77,20.06-6.69,29.19-3.33l20.34-3.47C1345.35,332.23,1347.52,338.13,1347.83,344.18Z"/><path class="cls-2" d="M1343.59,362.18a2,2,0,0,1-.64,0l-17.75-2.76c-1.7,1.89-6.09,5.58-14.92,6.18-8.12.55-14.06-4.19-17.08-7.36-1,2-2.62,4.37-5,5.43a6.47,6.47,0,0,1-5.55-.11c-4-1.86-5.46-5.69-4.16-10.79a18.28,18.28,0,0,1,2.93-6.15l8.39-11.65c7.06-13.35,20.74-8.21,29.8-4.8l1.28.48,19.81-3.39a2,2,0,0,1,1.47.33c4,2.84,6.77,8.22,7.47,14.77.81,7.54-1.14,15.08-5,19.21A2,2,0,0,1,1343.59,362.18ZM1324,355.34a1.9,1.9,0,0,1,.63,0l17.8,2.77c2.6-3.46,3.9-9.43,3.28-15.31-.54-5-2.42-9.16-5.18-11.46l-19.49,3.33a2,2,0,0,1-1-.09l-1.79-.67c-11.07-4.17-19.94-6.59-25,3l-.15.25L1284.68,349a14.25,14.25,0,0,0-2.31,4.82c-1.2,4.72,1.12,5.79,2,6.2a2.5,2.5,0,0,0,2.23.11c2.16-1,3.72-4.91,4.1-6.2a2,2,0,0,1,3.55-.56c.06.08,6.25,9,15.77,8.33s12.62-5.34,12.65-5.38A2,2,0,0,1,1324,355.34Z"/><path class="cls-2" d="M1290.72,353.78l5.7-10.4-2,11.7a2,2,0,1,1-3.75-1.3Z"/><polygon class="cls-2" points="1322.44 356.8 1326.23 351.25 1326.28 357.79 1322.44 356.8"/><g class="cls-3"><path class="cls-2" d="M1347.83,344.18c.32,6.18-1.3,12.51-4.57,16.05l-18.9-2.94s-3.39,5.61-14.21,6.34-17.56-9.21-17.56-9.21-2.92,10.21-9.07,7.35a5.62,5.62,0,0,1-3.08-3.22l.5-.71s4.53,2,7.93-4.8a79.44,79.44,0,0,1,8.3-12.85c-.08.37-2.6,12.14,7.17,15.78,9.94,3.7,18.42-12.54,18.42-12.54s7.48,4.58,23.07,1.08A16,16,0,0,1,1347.83,344.18Z"/></g><path class="cls-2" d="M1306.28,415.35c4.9-5,13.11-10.55,20.42-8.21a34.72,34.72,0,0,1,9.32,5.71,47.26,47.26,0,0,1,7.36,7.61,58,58,0,0,0-15.54-8.81,13.63,13.63,0,0,0-6.53-.86c-4.64.82-8.82,4-12.12,7.25a2,2,0,1,1-2.91-2.69Z"/><path class="cls-2" d="M1343.9,462a1.92,1.92,0,0,1-1.31-3.55,2.68,2.68,0,0,0,1.25-2.26c.74-7.37-11.38-24.48-19.6-32-8.54-7.79-14-5.95-14.25-5.87a1.92,1.92,0,0,1-2.49-1.08,2,2,0,0,1,1.09-2.51c.32-.12,7.78-2.94,18.25,6.61,7.79,7.11,21.81,25.47,20.83,35.22a6.48,6.48,0,0,1-3.11,5.17A1.84,1.84,0,0,1,1343.9,462Z"/><path class="cls-2" d="M1322.11,407.29a.64.64,0,0,0-.08.14s0,.07,0,.05.15-.41.2-.53A78.7,78.7,0,0,1,1330,391.9a33.15,33.15,0,0,1,18.63-14.13,24.88,24.88,0,0,1,5.79-.68A28.31,28.31,0,0,0,1349,379a34.2,34.2,0,0,0-12.39,10.8c-1.1,1.47-2.23,2.91-3.32,4.41a66.08,66.08,0,0,0-6.61,12.25c-.16.4-.63,1.55-.78,1.95l-.12.33-.07.18a2,2,0,1,1-3.61-1.59Z"/><path class="cls-2" d="M1362.27,435.38a1.67,1.67,0,0,1-1.84-1.09c-6.51-18.79-21.29-32.46-32.93-30.46a1.65,1.65,0,0,1-.56-3.26c13.39-2.29,29.47,12.05,36.61,32.64a1.65,1.65,0,0,1-1,2.1Z"/><path class="cls-2" d="M1340.41,327.36l10.88-1.74-9.56,5.48a2,2,0,1,1-1.32-3.74Z"/><path class="cls-2" d="M1365,363.2c-10,1.71-21.46-.87-22.2-1a2,2,0,0,1,.89-3.86c6.92,1.59,26,3.85,30.87-4.71a2,2,0,0,1,3.44,2C1375.41,360.09,1370.43,362.28,1365,363.2Z"/><path class="cls-2" d="M1335,330.11l-2-8.72,5.56,7a2,2,0,1,1-3.58,1.71Z"/><path class="cls-2" d="M1269.2,349.35a69.17,69.17,0,0,1,0-8.76,42.9,42.9,0,0,1,1.38-8.52,48.12,48.12,0,0,0,1.42,12.55c.31,1.35.66,2.74,1,4a2,2,0,1,1-3.9.72Z"/><g class="cls-3"><path class="cls-2" d="M1376.29,354.58c13.38,27.31,13.57,50.26-7.47,66.17l-16.48,31.38a17.11,17.11,0,0,1-21.67,7.92c-7.23-3-14.07-9.77-18.85-17.31.72.4,1.46.85,2.21,1.34,25.57,16.83,18.19-12.6,18.19-12.6,24.3,14.67,8.18-13.55,7.93-14l8.89,4.81s1-5.2,15-22.37,1.4-32.61,1.4-32.61c-11.27,4.3-26.11-2-26.06-1.7s-10.85.48-11.21.82-1.6-8.79-1.6-8.79l17.76,2.81,3.54-16.26c4.42-.83,14.19-2.54,14.19-2.54,7.15-25.22-15.69-34.46-15.69-34.46-23.31,15.4-55.62,12.62-56.82,12.49l15.94-17.83a194.51,194.51,0,0,1,20.52-3.36l15.77-3.57s14.19,1.55,23.61,13.14S1380.82,341.92,1376.29,354.58Z"/></g><g class="cls-3"><path class="cls-2" d="M1384,285.69l-.17,0C1383.92,285.62,1384,285.69,1384,285.69Z"/></g><circle class="cls-1" cx="1289.85" cy="244.84" r="73.59"/><g class="cls-3"><path class="cls-2" d="M1362.06,259A73.59,73.59,0,0,1,1242.4,301.1,73.6,73.6,0,0,0,1322,178.6,73.6,73.6,0,0,1,1362.06,259Z"/></g><path class="cls-2" d="M1227.25,284.17c5.66,8.64,14.18,17.52,27,25.1,35.76,15.89,77.59.23,88.27-47.35l-9.19-36.34a40.86,40.86,0,0,0-11.73-14.4c-31.56-25.38-103.72-24.25-105.34,35.64C1216.27,246.82,1214.65,264.91,1227.25,284.17Z"/><g class="cls-7"><path class="cls-8" d="M1227.25,284.17c5.66,8.64,14.18,17.52,27,25.1,35.76,15.89,77.59.23,88.27-47.35l-9.19-36.34a40.86,40.86,0,0,0-11.73-14.4c18.32,48.69-34.76,110.47-93.87,73.13Z"/></g><path class="cls-2" d="M1299.56,319.51c-1.4.24-2.84.44-4.31.59a1.86,1.86,0,1,1-.39-3.69c18.58-1.94,33.17-11.31,43.38-27.84a79.46,79.46,0,0,0,9.83-24.31l-9.31-45.15c-9.87-14.9-26.47-25.41-46.79-29.61-20.8-4.3-42-1.05-56.72,8.68a1.86,1.86,0,0,1-2-3.1c15.52-10.26,37.77-13.71,59.52-9.22,21.43,4.43,39,15.62,49.34,31.51a1.82,1.82,0,0,1,.27.64l9.46,45.86a2,2,0,0,1,0,.69,80.9,80.9,0,0,1-10.33,25.85C1334.45,301.81,1321.59,315.74,1299.56,319.51Z"/><path class="cls-2" d="M1292.49,316.17a67.92,67.92,0,0,1-39-5.24,1.82,1.82,0,0,1,1.48-3.32c17.65,7.85,36.87,7.77,52.75-.21,16.4-8.25,28.08-24.38,32.91-45.45l-9-35.75c-4.63-9.86-15.36-18.5-29.47-23.72s-30.12-6.55-44-3.69c-14.57,3-39.13,13.23-40.08,48.08a1.82,1.82,0,0,1-3.63-.1c.74-27.28,16.4-46.07,43-51.54,31.08-6.39,67.31,7.43,77.56,29.59a1.75,1.75,0,0,1,.12.32l9.19,36.34a1.83,1.83,0,0,1,0,.84c-5,22.36-17.42,39.52-34.92,48.32A60,60,0,0,1,1292.49,316.17Z"/><path class="cls-2" d="M1302.67,319.61a76,76,0,1,1,29.47-11.85A75.92,75.92,0,0,1,1302.67,319.61Zm-24.89-145.15a71.39,71.39,0,1,0,82.1,84.11l2.18.43-2.18-.43a71.47,71.47,0,0,0-82.1-84.11Z"/><path class="cls-1" d="M1365.69,237.53c2.39,13-2.28,24.56-12.37,26.42s-20.22-7.14-22.62-20.12,3.85-25,13.94-26.88S1363.29,224.55,1365.69,237.53Z"/><g class="cls-3"><path class="cls-2" d="M1353.32,264c-10.1,1.86-20.22-7.15-22.62-20.13a29.14,29.14,0,0,1,.18-11.76c3.55,10.69,12.57,17.64,21.55,16,6.67-1.24,11-6.72,12.43-14.05a36.1,36.1,0,0,1,.83,3.52C1368.08,250.51,1363.42,262.09,1353.32,264Z"/></g><path class="cls-2" d="M1353.5,266.19c-5.5.94-11.13-.86-15.86-5.07a29.77,29.77,0,0,1-9.13-16.89c-2.62-14.16,4.44-27.38,15.73-29.47,5.5-1,11,.88,15.4,5.35,4,4.11,7,10.15,8.24,17,2.73,14.8-3.22,27-14.16,29Zm-8.29-47.07-.16,0c-8.88,1.63-14.33,12.53-12.16,24.28a25.31,25.31,0,0,0,7.71,14.36c3.75,3.34,8.12,4.75,12.31,4,8.4-1.55,12.85-11.57,10.59-23.83-1.11-6-3.61-11.21-7-14.69C1354.13,220.87,1350.29,218.25,1345.21,219.12Z"/><path class="cls-2" d="M1359.17,261.37c-8.85,1.52-17.85-7.12-20.11-19.35a27.71,27.71,0,0,1,1.66-16.37c2.25-4.93,5.93-8.1,10.37-8.92a11.42,11.42,0,0,1,2.74-.18,1,1,0,0,1,.24,0,1.86,1.86,0,0,1-.47,3.68,8.06,8.06,0,0,0-1.84.12c-3.21.59-5.93,3-7.66,6.81a24,24,0,0,0-1.39,14.16c1.89,10.23,9,17.54,15.83,16.36l.12,0a8,8,0,0,0,2.6-.95,1.85,1.85,0,1,1,1.86,3.21,11.83,11.83,0,0,1-3.79,1.4Z"/><g class="cls-9"><path class="cls-6" d="M1264.86,209.31c-19.22,17.09-28.54,37.81-26.57,62.66a1.81,1.81,0,0,1-3.44.94c-14.27-29.51-14.46-57.11,28.4-66.73A1.82,1.82,0,0,1,1264.86,209.31Z"/></g><g class="cls-9"><path class="cls-6" d="M1314.47,247.51l-.38.1a6.94,6.94,0,0,1-8.25-4.36c-.14-.38-.28-.76-.42-1.11a6.91,6.91,0,0,1,3.9-9l.28-.11a7,7,0,0,1,8.72,3.34q.36.71.69,1.41A7,7,0,0,1,1314.47,247.51Z"/></g><g class="cls-9"><path class="cls-6" d="M1307.56,291.43h0a6.93,6.93,0,0,1-3.88-9.18,49.75,49.75,0,0,0,4-17.66,7,7,0,0,1,7.23-6.73l1,0a6.93,6.93,0,0,1,6.64,7.4A63.25,63.25,0,0,1,1316.3,288,6.93,6.93,0,0,1,1307.56,291.43Z"/></g><g class="cls-3"><path class="cls-2" d="M1290,406.09s25.19,2.63,41.52-14.49L1325.1,406l-2.73,2.57c-6.46,1.48-11.5,3.87-14.24,7.72A29.75,29.75,0,0,1,1290,406.09Z"/></g><g class="cls-3"><path class="cls-2" d="M1270.21,336.39s-6.88,8.64-8.66,23.86l7.6,11.05,1.72-1.65s-1.66-15.13-1.93-15.36,1.9-3.47,1.82-7.57a42.47,42.47,0,0,0-.54-6.56"/></g><path class="cls-2" d="M1241.87,426.76l4.57,6.93-7.26-4a2,2,0,1,1,2.69-2.91Z"/><path class="cls-2" d="M1356.43,301.54a1.92,1.92,0,0,1-1.28-.21,2,2,0,0,1-.8-2.69c7.26-13.37,21.89-13.77,22.5-13.78a2,2,0,0,1,.08,4c-.54,0-13,.41-19.09,11.7A2,2,0,0,1,1356.43,301.54Z"/><g class="cls-3"><path class="cls-2" d="M1354.07,283.12s-10.24,7,8.25,21.33c-6.58-4.78-13.16-8.25-19.73-9.41l6.87-11.69"/></g><path class="cls-6" d="M1220,341.2a15,15,0,0,1,.91,1.53,80.25,80.25,0,0,1-23.36,15.93,13.9,13.9,0,0,1-1.09-1.41.43.43,0,0,1,0-.07c-.15-.22-.29-.44-.43-.66a15.48,15.48,0,0,1-.83-1.62.14.14,0,0,1,0-.06,13.5,13.5,0,0,1-.81-2.5,14.25,14.25,0,0,1,17.33-16.94,14.45,14.45,0,0,1,4.41,1.93,14.13,14.13,0,0,1,2.06,1.66l.16.15a14.38,14.38,0,0,1,1.2,1.36c.13.18.27.36.4.55Z"/><path class="cls-6" d="M1222.4,348.05a12.64,12.64,0,0,1,0,1.74,13.92,13.92,0,0,1-.3,2.42,14.23,14.23,0,0,1-16.26,11.07,14.66,14.66,0,0,1-2.26-.57,13.08,13.08,0,0,1-1.69-.7,76.15,76.15,0,0,0,20.48-14Z"/><path class="cls-6" d="M1220.88,342.73a80.25,80.25,0,0,1-23.36,15.93,15.5,15.5,0,0,1-1.09-1.41l0-.07c-.15-.22-.29-.44-.43-.66a15.48,15.48,0,0,1-.83-1.62.14.14,0,0,1,0-.06,13.5,13.5,0,0,1-.81-2.5,14.27,14.27,0,0,1,4-13.37,14.2,14.2,0,0,0,0,11.19l0,.07a.48.48,0,0,0,.05.11c1.12,2.29,3.89,2.85,6.36,2.2,4.7-1.25,14.09-8.62,16.07-10.28C1221.06,342.6,1220.69,342.37,1220.88,342.73Z"/><path class="cls-6" d="M1212.73,355.87a72.21,72.21,0,0,0,9.67-7.82,12.64,12.64,0,0,1,0,1.74,61.22,61.22,0,0,1-9,7.3,63.5,63.5,0,0,1-9.77,5.62,13.08,13.08,0,0,1-1.69-.7A71.61,71.61,0,0,0,1212.73,355.87Z"/><path class="cls-6" d="M1219.86,341.05l.11.15a15,15,0,0,1,.91,1.53,80.25,80.25,0,0,1-23.36,15.93,13.9,13.9,0,0,1-1.09-1.41.43.43,0,0,1,0-.07c2.69-.78,7.41-3.29,12.46-6.73C1214.1,346.87,1218.28,343.25,1219.86,341.05Z"/><path class="cls-6" d="M1194.35,352.81l-.11-.95c1.93-.24,6.65-2.7,11.48-6,5.77-3.93,9.33-7.35,9.88-8.71l.89.36c-.72,1.79-4.83,5.47-10.23,9.15C1201.24,350.08,1196.45,352.56,1194.35,352.81Z"/><path class="cls-6" d="M1194.22,347.92l-.31-.91a44.35,44.35,0,0,0,9.15-5.05,42.33,42.33,0,0,0,8.19-6.86l.75.6a42.86,42.86,0,0,1-8.4,7.05A44.83,44.83,0,0,1,1194.22,347.92Z"/><path class="cls-6" d="M1195.19,355.31l-.17-.95c2.2-.37,7.08-2.94,12.14-6.39,5.31-3.62,9.63-7.4,10.51-9.2l.86.43c-1,2-5.31,5.8-10.83,9.56C1202.45,352.34,1197.54,354.91,1195.19,355.31Z"/><path class="cls-6" d="M1205.93,363.51l-.06-.23-.15-.19,0,0h0c1.87-.47,5.29-2.28,8.69-4.6s6.28-4.78,7.43-6.38l.39.28c-1.18,1.64-4.08,4.13-7.55,6.5S1207.88,363,1205.93,363.51Z"/><path class="cls-6" d="M1222.4,348.05a14.24,14.24,0,0,1-20.48,14,76.15,76.15,0,0,0,20.48-14Z"/><path class="cls-6" d="M1227.78,338.32c1.18,1.72-1,5.46-5.38,9.73a76.15,76.15,0,0,1-20.48,14c-5.56,2.48-9.85,3.19-11,1.46-1.07-1.56.67-4.79,4.24-8.57a15.48,15.48,0,0,0,.83,1.62c-1,1.13-1.4,2-1.13,2.36s1.24.29,2.69-.22a80.25,80.25,0,0,0,23.36-15.93c1-1.16,1.46-2,1.19-2.43s-1.21-.3-2.61.2a14.38,14.38,0,0,0-1.2-1.36C1223.08,337.19,1226.71,336.75,1227.78,338.32Z"/><path class="cls-6" d="M1195.84,356.3l.12.22c-1,1.13-1.4,2-1.13,2.36s1.24.29,2.69-.22a47.31,47.31,0,0,0,7.55-3.83,2.07,2.07,0,0,0,.14.8c-1.17.68-2.31,1.31-3.41,1.86-4.74,2.39-7.35,2.82-7.77,2.2C1193.78,359.33,1194.13,358.25,1195.84,356.3Z"/><path class="cls-6" d="M1195.35,355.69l.14.13a20.7,20.7,0,0,0-2,2.53A11.31,11.31,0,0,1,1195.35,355.69Z"/><path class="cls-6" d="M1195.64,355.94l-.15-.12,0-.06Z"/><path class="cls-6" d="M1193.46,358.35a1.75,1.75,0,0,0-.07,1.78,1.69,1.69,0,0,0,1.52.58c1.83,0,4.77-1.28,7.24-2.53,1.13-.56,2.3-1.21,3.51-1.91a2.51,2.51,0,0,0,1.21.55c-1.77,1.05-3.52,2-5.16,2.76-5.87,2.78-8.63,2.78-9.21,1.93C1192.18,361,1192.35,360,1193.46,358.35Z"/><path class="cls-6" d="M1212.49,356a69.88,69.88,0,0,1-10.57,6c-5.56,2.49-9.85,3.19-11,1.46-1.07-1.56.67-4.79,4.24-8.57.08.17.15.33.23.49l-.29-.27c-2.07,2.23-4.31,5.23-3.21,6.83a2.49,2.49,0,0,0,2.2.84c2.32,0,5.74-1.44,8-2.51a66.72,66.72,0,0,0,6.2-3.37A16.74,16.74,0,0,0,1212.49,356Z"/><path class="cls-6" d="M1205.66,356.27c-1.21.7-2.38,1.35-3.51,1.91-2.47,1.25-5.41,2.51-7.24,2.53a1.69,1.69,0,0,1-1.52-.58,1.75,1.75,0,0,1,.07-1.78,20.7,20.7,0,0,1,2-2.53l.15.12c.06.12.13.24.2.36-1.71,1.95-2.06,3-1.81,3.39.42.62,3,.19,7.77-2.2,1.1-.55,2.24-1.18,3.41-1.86a1.71,1.71,0,0,0,.17.33A1.64,1.64,0,0,0,1205.66,356.27Z"/><path class="cls-6" d="M1195.49,355.82a20.7,20.7,0,0,0-2,2.53,11.31,11.31,0,0,1,1.89-2.66Z"/><path class="cls-6" d="M1195.64,355.94l.29.26-.09.1C1195.77,356.18,1195.7,356.06,1195.64,355.94Z"/><path class="cls-6" d="M1218.74,346.87a79.22,79.22,0,0,1-8,6.15c-1.73,1.18-3.46,2.27-5.13,3.25a1.64,1.64,0,0,1-.28-.31,1.71,1.71,0,0,1-.17-.33c1.68-1,3.41-2.07,5.14-3.25a79.29,79.29,0,0,0,7.88-6.09c4-3.54,5.31-5.82,4.89-6.44-.26-.37-1.42-.43-3.94.5l-.21-.55-.06-.18a11.28,11.28,0,0,1,3.17-.79,1.79,1.79,0,0,1,1.68.58C1224.8,340.94,1221.6,344.31,1218.74,346.87Z"/><path class="cls-6" d="M1208.24,356.91a66.72,66.72,0,0,1-6.2,3.37c-2.24,1.07-5.66,2.48-8,2.51a2.49,2.49,0,0,1-2.2-.84c-1.1-1.6,1.14-4.6,3.21-6.83l.29.27.18.37,0,.06-.14-.13a11.31,11.31,0,0,0-1.89,2.66c-1.11,1.65-1.28,2.69-1,3.16.58.85,3.34.85,9.21-1.93,1.64-.78,3.39-1.71,5.16-2.76A5.87,5.87,0,0,0,1208.24,356.91Z"/><path class="cls-6" d="M1195.35,355.69l.14.13a20.7,20.7,0,0,0-2,2.53A11.31,11.31,0,0,1,1195.35,355.69Z"/><path class="cls-6" d="M1195.36,355.39l.28.26-.1.11Z"/><path class="cls-6" d="M1220.74,347.53a74,74,0,0,1-8.89,7.05c-1.2.82-2.41,1.6-3.61,2.33a5.87,5.87,0,0,1-1.37-.09c1.5-.88,3-1.85,4.54-2.89a71.51,71.51,0,0,0,8.8-7c4.73-4.45,5.74-7,5.16-7.87-.32-.47-1.35-.69-3.29-.26a22.74,22.74,0,0,0-3.11,1l-.2.08-.29-.72c2.83-1.11,6.44-2.1,7.53-.5C1227.43,340.73,1223.32,345.11,1220.74,347.53Z"/><path class="cls-6" d="M1227.78,338.32c1.18,1.72-1,5.46-5.38,9.73a76.15,76.15,0,0,1-20.48,14c-5.56,2.48-9.85,3.19-11,1.46-1.07-1.56.67-4.79,4.24-8.57a15.48,15.48,0,0,0,.83,1.62c-1,1.13-1.4,2-1.13,2.36s1.24.29,2.69-.22a80.25,80.25,0,0,0,23.36-15.93c1-1.16,1.46-2,1.19-2.43s-1.21-.3-2.61.2a14.38,14.38,0,0,0-1.2-1.36C1223.08,337.19,1226.71,336.75,1227.78,338.32Z"/><g class="cls-10"><path class="cls-6" d="M1220.89,342.78c-.23.26-.48.53-.77.82-.19-.34-.41-.68-.63-1l-.11-.15c-.13-.19-.27-.37-.41-.55a13,13,0,0,0-1.19-1.36l-.16-.15a14.13,14.13,0,0,0-2.06-1.66,14.56,14.56,0,0,0-4.41-1.93,14.23,14.23,0,0,0-16.52,8.22,14.25,14.25,0,0,1,23.49-6l.15.15a17.4,17.4,0,0,1,1.2,1.36c.14.18.27.37.4.56l.11.15A15,15,0,0,1,1220.89,342.78Z"/></g><path class="cls-6" d="M1220,341.2a15,15,0,0,1,.91,1.53,80.25,80.25,0,0,1-23.36,15.93,13.9,13.9,0,0,1-1.09-1.41c-.16-.24-.32-.48-.47-.73a15.48,15.48,0,0,1-.83-1.62,14.25,14.25,0,0,1,24.33-14.4Z"/><path class="cls-11" d="M1218.93,342a13,13,0,0,1,.82,1.39,57.88,57.88,0,0,1-9.93,8.14,57.12,57.12,0,0,1-11.2,6.26,12.64,12.64,0,0,1-1-1.27l0-.06c-.13-.2-.26-.4-.38-.6a11.2,11.2,0,0,1-.75-1.46l0-.06a13.52,13.52,0,0,1-.73-2.26,12.91,12.91,0,0,1,19.68-13.58,13.28,13.28,0,0,1,1.86,1.5l.14.13a14.32,14.32,0,0,1,1.08,1.24c.13.16.25.32.37.49A.71.71,0,0,0,1218.93,342Z"/><path class="cls-12" d="M1221.12,348.15a11.76,11.76,0,0,1,0,1.57,13.39,13.39,0,0,1-.28,2.19,12.89,12.89,0,0,1-14.71,10,13,13,0,0,1-2-.52,12.13,12.13,0,0,1-1.54-.63,63.77,63.77,0,0,0,9.78-5.56A64.69,64.69,0,0,0,1221.12,348.15Z"/><path class="cls-12" d="M1219.75,343.34a57.88,57.88,0,0,1-9.93,8.14,57.12,57.12,0,0,1-11.2,6.26,12.64,12.64,0,0,1-1-1.27l0-.06c-.13-.2-.26-.4-.38-.6a11.2,11.2,0,0,1-.75-1.46l0-.06a13.52,13.52,0,0,1-.73-2.26,12.9,12.9,0,0,1,3.64-12.1,12.67,12.67,0,0,0-.93,3.46,12.85,12.85,0,0,0,.2,4.41,13.56,13.56,0,0,0,.74,2.26l0,.06.05.1c1,2.07,3.52,2.58,5.76,2,4.25-1.13,12.74-7.79,14.53-9.3C1219.91,343.22,1219.58,343,1219.75,343.34Z"/><path class="cls-13" d="M1212.37,355.22a64.69,64.69,0,0,0,8.75-7.07,11.76,11.76,0,0,1,0,1.57,56.35,56.35,0,0,1-8.19,6.61,57.36,57.36,0,0,1-8.84,5.08,12.13,12.13,0,0,1-1.54-.63A63.77,63.77,0,0,0,1212.37,355.22Z"/><path class="cls-13" d="M1218.83,341.81a.71.71,0,0,0,.1.14,13,13,0,0,1,.82,1.39,57.88,57.88,0,0,1-9.93,8.14,57.12,57.12,0,0,1-11.2,6.26,12.64,12.64,0,0,1-1-1.27l0-.06c2.43-.71,6.7-3,11.28-6.09C1213.62,347.08,1217.39,343.8,1218.83,341.81Z"/><path class="cls-13" d="M1195.75,352.46l-.1-.86c1.74-.22,6-2.45,10.39-5.43,5.21-3.56,8.44-6.66,8.93-7.88l.81.33c-.65,1.61-4.37,4.94-9.25,8.27C1202,350,1197.65,352.23,1195.75,352.46Z"/><path class="cls-13" d="M1195.63,348l-.27-.82a40.14,40.14,0,0,0,8.27-4.57,38.13,38.13,0,0,0,7.41-6.2l.68.54a39.1,39.1,0,0,1-7.6,6.38A41.28,41.28,0,0,1,1195.63,348Z"/><path class="cls-13" d="M1196.51,354.72l-.15-.86c2-.34,6.4-2.66,11-5.79,4.8-3.27,8.71-6.69,9.51-8.31l.78.38c-.87,1.77-4.81,5.25-9.8,8.65C1203.08,352,1198.64,354.35,1196.51,354.72Z"/><path class="cls-13" d="M1206.22,362.14l0-.21-.13-.18,0,0h0a39.93,39.93,0,0,0,14.58-9.93l.36.25a31.39,31.39,0,0,1-6.83,5.87A30.81,30.81,0,0,1,1206.22,362.14Z"/><path class="cls-2" d="M1210.55,362.44a13.41,13.41,0,0,1-8.19-1.18l-1-.5,1.05-.47a69.12,69.12,0,0,0,18.37-12.53l.82-.8.09,1.14a13.43,13.43,0,0,1-5.82,12.2A13.24,13.24,0,0,1,1210.55,362.44Zm-6.64-1.68a12.35,12.35,0,0,0,16.72-11.39,67.42,67.42,0,0,1-8,6.29A65.86,65.86,0,0,1,1203.91,360.76Z"/><path class="cls-14" d="M1226,339.34c1.07,1.56-.94,5-4.87,8.81a64.69,64.69,0,0,1-8.75,7.07,63.77,63.77,0,0,1-9.78,5.56c-5,2.25-8.91,2.88-10,1.32s.6-4.34,3.84-7.75a11.2,11.2,0,0,0,.75,1.46c-.88,1-1.27,1.78-1,2.13s1.13.27,2.44-.2a57.12,57.12,0,0,0,11.2-6.26,57.88,57.88,0,0,0,9.93-8.14c.91-1.06,1.32-1.83,1.07-2.2s-1.09-.27-2.36.18a14.32,14.32,0,0,0-1.08-1.24C1221.74,338.32,1225,337.93,1226,339.34Z"/><path class="cls-15" d="M1197.09,355.62l.12.19c-.88,1-1.27,1.78-1,2.13s1.13.27,2.44-.2a42,42,0,0,0,6.83-3.46,2,2,0,0,0,.12.72c-1.06.62-2.09,1.19-3.08,1.69-4.29,2.16-6.65,2.55-7,2C1195.23,358.35,1195.55,357.38,1197.09,355.62Z"/><path class="cls-12" d="M1196.65,355.06l.13.11a20.86,20.86,0,0,0-1.84,2.29A10.51,10.51,0,0,1,1196.65,355.06Z"/><path class="cls-12" d="M1196.91,355.29l-.13-.12,0,0Z"/><path class="cls-15" d="M1194.94,357.46a1.6,1.6,0,0,0-.06,1.61,1.51,1.51,0,0,0,1.38.53c1.65,0,4.31-1.15,6.55-2.29,1-.51,2.08-1.09,3.17-1.73a2.2,2.2,0,0,0,1.1.5c-1.61.95-3.18,1.8-4.67,2.5-5.32,2.52-7.81,2.51-8.34,1.74C1193.78,359.9,1193.94,359,1194.94,357.46Z"/><path class="cls-15" d="M1212.16,355.36a62.83,62.83,0,0,1-9.57,5.42c-5,2.25-8.91,2.88-10,1.32s.6-4.34,3.84-7.75c.06.15.13.29.2.44l-.26-.24c-1.87,2-3.89,4.72-2.91,6.17a2.23,2.23,0,0,0,2,.76c2.11,0,5.2-1.3,7.23-2.26a62.44,62.44,0,0,0,5.61-3.06A15.31,15.31,0,0,0,1212.16,355.36Z"/><path class="cls-16" d="M1206,355.58c-1.09.64-2.16,1.22-3.17,1.73-2.24,1.14-4.9,2.27-6.55,2.29a1.51,1.51,0,0,1-1.38-.53,1.6,1.6,0,0,1,.06-1.61,20.86,20.86,0,0,1,1.84-2.29l.13.12.18.33c-1.54,1.76-1.86,2.73-1.63,3.06.38.56,2.74.17,7-2,1-.5,2-1.07,3.08-1.68,0,.1.1.2.16.3A1.27,1.27,0,0,0,1206,355.58Z"/><path class="cls-17" d="M1196.78,355.17a20.86,20.86,0,0,0-1.84,2.29,10.51,10.51,0,0,1,1.71-2.4Z"/><path class="cls-17" d="M1196.91,355.29l.27.23-.09.1Z"/><path class="cls-17" d="M1217.82,347.08a72.26,72.26,0,0,1-7.2,5.57c-1.56,1.06-3.13,2.05-4.64,2.93a1.27,1.27,0,0,1-.25-.27,3,3,0,0,1-.16-.31c1.52-.88,3.09-1.87,4.65-2.94a69.73,69.73,0,0,0,7.13-5.5c3.58-3.21,4.8-5.27,4.42-5.83-.23-.33-1.28-.39-3.56.45l-.18-.49-.07-.17a10.12,10.12,0,0,1,2.88-.71,1.58,1.58,0,0,1,1.51.53C1223.29,341.72,1220.41,344.77,1217.82,347.08Z"/><path class="cls-16" d="M1208.32,356.16a62.44,62.44,0,0,1-5.61,3.06c-2,1-5.12,2.24-7.23,2.26a2.23,2.23,0,0,1-2-.76c-1-1.45,1-4.15,2.91-6.17l.26.24c.06.11.11.22.17.34l0,0-.13-.11a10.51,10.51,0,0,0-1.71,2.4c-1,1.5-1.16,2.44-.87,2.86.53.77,3,.78,8.34-1.74,1.49-.7,3.06-1.55,4.67-2.5A5.31,5.31,0,0,0,1208.32,356.16Z"/><path class="cls-15" d="M1196.65,355.06l.13.11a20.86,20.86,0,0,0-1.84,2.29A10.51,10.51,0,0,1,1196.65,355.06Z"/><path class="cls-17" d="M1196.66,354.79l.26.24-.09.1Z"/><path class="cls-17" d="M1219.63,347.68a66.33,66.33,0,0,1-8.05,6.37c-1.09.75-2.18,1.45-3.26,2.11a5.31,5.31,0,0,1-1.24-.08c1.35-.8,2.73-1.67,4.1-2.61a66.76,66.76,0,0,0,8-6.3c4.28-4,5.18-6.36,4.66-7.12-.29-.43-1.22-.63-3-.24a19.17,19.17,0,0,0-2.81.88l-.19.07-.26-.65c2.56-1,5.82-1.91,6.81-.46C1225.67,341.53,1222,345.49,1219.63,347.68Z"/><path class="cls-2" d="M1196.54,363.35c-1.9.33-3.59.19-4.36-1-1.49-2.18,1.8-6.21,3.89-8.42l.56-.59.32.75a13.09,13.09,0,0,0,.72,1.39l.2.34-.25.29a4,4,0,0,0-1,1.46,4.42,4.42,0,0,0,1.78-.38,72.32,72.32,0,0,0,20.9-14.26,4.23,4.23,0,0,0,1-1.51,3.92,3.92,0,0,0-1.71.35l-.37.13-.23-.31a11.58,11.58,0,0,0-1-1.17l-.58-.58.76-.3c2.82-1.15,7.77-2.73,9.26-.55h0c1.65,2.41-2.39,7-4.94,9.49a69.7,69.7,0,0,1-18.69,12.74A28,28,0,0,1,1196.54,363.35Zm-.23-8.05c-3.22,3.55-3.81,5.67-3.24,6.5s3.46,1.1,9.31-1.51a69.12,69.12,0,0,0,18.37-12.53c4.56-4.49,5.44-7.18,4.8-8.11h0c-.56-.83-2.76-1.06-7.24.65a4.32,4.32,0,0,1,.34.39c1.43-.46,2.24-.41,2.62.15s.07,1.49-1.12,2.85a72.92,72.92,0,0,1-21.35,14.56c-1.7.61-2.65.61-3.06,0s-.13-1.34.81-2.5Z"/><g class="cls-10"><path class="cls-6" d="M1219.76,343.38l-.7.75a10.09,10.09,0,0,0-.57-.93l-.1-.14-.36-.49a14.42,14.42,0,0,0-1.09-1.24l-.14-.13a13.28,13.28,0,0,0-1.86-1.5,12.71,12.71,0,0,0-4-1.74,12.87,12.87,0,0,0-14.94,7.43,12.89,12.89,0,0,1,19.39-6.89,12.53,12.53,0,0,1,1.86,1.49l.14.14a12.84,12.84,0,0,1,1.08,1.23c.13.16.25.33.37.5l.1.14A13.91,13.91,0,0,1,1219.76,343.38Z"/></g><path class="cls-2" d="M1198.46,358.37l-.25-.27a14.5,14.5,0,0,1-1-1.32c-.16-.23-.3-.46-.44-.7a12.76,12.76,0,0,1-.79-1.51,13.43,13.43,0,0,1,21.8-14.87,15.34,15.34,0,0,1,1.13,1.29c.16.21.33.43.48.66a14,14,0,0,1,.86,1.44l.16.32-.24.28a72.92,72.92,0,0,1-21.35,14.56Zm7.73-21.33a12.36,12.36,0,0,0-9.24,17.1,13.09,13.09,0,0,0,.72,1.39c.13.22.26.43.41.64s.45.64.7.94a74.27,74.27,0,0,0,20.32-13.85c-.19-.34-.4-.68-.62-1h0c-.14-.21-.29-.42-.44-.61a10.7,10.7,0,0,0-1-1.18A12.34,12.34,0,0,0,1206.19,337Z"/></svg>