<svg id="Layer_1" data-name="Layer 1" xmlns="http://www.w3.org/2000/svg" viewBox="0 0 1920 633.25"><defs><style>.cls-1{opacity:0.35;}.cls-2{fill:#371a45;}.cls-3{fill:#fff;}.cls-4{fill:#afafb2;}.cls-5{opacity:0.7;}.cls-6{fill:#22a7f0;}.cls-7{fill:#111a28;}.cls-8{opacity:0.3;}.cls-9{fill:#390075;}.cls-10{fill:#f9195a;}.cls-11{opacity:0.5;}</style></defs><g class="cls-1"><ellipse class="cls-2" cx="632.52" cy="329.57" rx="79.45" ry="6.11" transform="translate(-22.46 47.27) rotate(-4.21)"/></g><path class="cls-3" d="M678.87,310.24l-99.47,7.31a202.47,202.47,0,0,1,0-25.46c.15-2.74.36-5.65.64-8.7a213.38,213.38,0,0,1,9-45.62q1.18-3.63,2.53-7.28,1.08-2.88,2.29-5.75.87-2.1,1.82-4.19l53-3.89c.82,1.28,1.63,2.57,2.41,3.87,1.09,1.79,2.14,3.61,3.14,5.42q2.15,3.9,4.05,7.83a214.22,214.22,0,0,1,15,42.75q1.08,4.49,1.9,8.54A202,202,0,0,1,678.87,310.24Z"/><g class="cls-1"><path class="cls-2" d="M678.87,310.24l-99.47,7.31a202.47,202.47,0,0,1,0-25.46c.15-2.74.36-5.65.64-8.7.52-5.78,1.3-12.05,2.43-18.6,6.42,16.26,24.09,27.71,44.6,26.2l.89-.07c20.44-1.5,36.21-15.33,40.24-32.3,2.06,6.27,3.72,12.31,5.08,17.91q1.08,4.49,1.9,8.54A202,202,0,0,1,678.87,310.24Z"/></g><path class="cls-2" d="M680.13,311.33l-101.81,7.49-.1-1.17a217.66,217.66,0,0,1,.39-31.74c1.37-17.06,5.24-42.33,16-65.85a1.19,1.19,0,1,1,2.16,1c-18.55,40.7-16.7,87.31-16.23,95.24l97.1-7.14a225.87,225.87,0,0,0-4.9-29.83c-3.81-16.48-11.24-40.62-25.09-62a1.18,1.18,0,0,1,.35-1.64,1.2,1.2,0,0,1,1.64.35c14,21.7,21.57,46.14,25.42,62.82a217.36,217.36,0,0,1,5,31.33Z"/><path class="cls-2" d="M658.79,308.48,599,312.88a19.26,19.26,0,0,1-20.59-17.78l-3.52-47.85a19.26,19.26,0,0,1,17.77-20.6l59.78-4.39A19.26,19.26,0,0,1,673,240l3.52,47.86A19.26,19.26,0,0,1,658.79,308.48ZM592.84,229a16.89,16.89,0,0,0-15.58,18.06l3.52,47.85a16.89,16.89,0,0,0,18.06,15.58l59.77-4.39a16.87,16.87,0,0,0,15.58-18.06l-3.51-47.85a16.9,16.9,0,0,0-18.06-15.59L592.84,229Z"/><path class="cls-3" d="M703.63,281.59s-5.33,39.76-7.94,40.83c-3.74,1.52-13,.89-13,.89s-19.33-1.18-36.56-1.1c-5.05,0-9.93.16-14.08.46-4.76.35-10.43,1.06-16.21,1.93-16.43,2.45-33.78,6.11-33.78,6.11s-9.11,2-13,1c-2.74-.67-13.82-39.22-13.82-39.22,4.36-7.42,15.7-7.5,22,4.56.12-.23.25-.46.38-.69a18.73,18.73,0,0,1,8.68-7.92c.63-.28,1.26-.52,1.88-.74,8.72-3,17.11.38,23.13,4.26.55.35,1.08.71,1.58,1.07l.15.11c.41.28.79.57,1.16.85a24.88,24.88,0,0,0,6,3.31c.3.11.6.22.92.32a23.38,23.38,0,0,0,9.27,1.18,23.81,23.81,0,0,0,15.26-7.12c4.51-4.59,11.61-10,20.16-10.36a21.53,21.53,0,0,1,6.64.79,18.41,18.41,0,0,1,8.39,5,20.52,20.52,0,0,1,1.83,2.16C687,276.47,698.22,274.89,703.63,281.59Z"/><g class="cls-1"><path class="cls-2" d="M703.63,281.59s-5.33,39.76-7.94,40.82c-3.74,1.54-13.05.9-13.05.9s-19.32-1.18-36.55-1.1h-1.88l-1.17,0-2.31,0-1.13,0-.89,0c-.3,0-.59,0-.88,0l-.87,0-.86,0-1.68.09c-.83,0-1.63.1-2.41.15l-1,.08-1.61.14-.11,0-1.34.13-1.36.14c-1.73.19-3.54.41-5.38.66l-1.07.14-2.14.3-2.16.32c-16.43,2.45-33.79,6.11-33.79,6.11s-9.1,2-13,1c-2.73-.67-13.82-39.22-13.82-39.22a10.66,10.66,0,0,1,2.67-3.05c3.47,11.29,8.31,26,10,26.42,3.92,1,13-1,13-1s1.63-.57,4.36-1.47a4.74,4.74,0,0,0,1.57-8.12,94,94,0,0,1-9.25-8.88,18.73,18.73,0,0,1,8.68-7.92c.63-.28,1.26-.52,1.88-.74,8.72-3,17.11.38,23.13,4.26.55.35,1.08.71,1.58,1.07l.15.11c.41.28.79.57,1.16.85a24.88,24.88,0,0,0,6,3.31c.3.11.6.22.92.32a23.38,23.38,0,0,0,9.27,1.18,23.81,23.81,0,0,0,15.26-7.12c4.51-4.59,11.61-10,20.16-10.36a21.53,21.53,0,0,1,6.64.79,18.41,18.41,0,0,1,8.39,5,92.81,92.81,0,0,1-8.52,11.23l-.06.07a4.74,4.74,0,0,0,2.76,7.82c4.05.68,6.59,1.17,6.59,1.17s9.3.64,13-.89c1.61-.66,4.24-15.92,6-27.59A10.63,10.63,0,0,1,703.63,281.59Z"/></g><path class="cls-2" d="M574,333.09a18.54,18.54,0,0,1-5.34-.21c-1-.24-2.35-.58-8.78-20.65-3.09-9.63-5.87-19.29-5.9-19.39l-.14-.49.26-.44a11.31,11.31,0,0,1,10.15-5.7c5,.12,9.57,3.19,12.88,8.51a19.72,19.72,0,0,1,8.55-7.34c7.15-3.2,15-2.57,23.2,1.87a1.19,1.19,0,1,1-1.12,2.09c-7.57-4.07-14.67-4.68-21.11-1.8a17.69,17.69,0,0,0-8.49,8.09l-1.06,2-1-2c-2.94-5.63-7.27-8.93-11.87-9a9,9,0,0,0-7.78,4.11c5,17.37,11.14,36,13,37.93,3.08.65,9.92-.54,12.33-1.07.33-.07,32-6.72,50.17-8.06s50.46.62,50.79.64c2.47.17,9.41.35,12.36-.75,1.54-2.17,4.89-21.51,7.3-39.42a9,9,0,0,0-8.3-2.93c-4.54.79-8.34,4.68-10.42,10.68l-.74,2.12-1.33-1.8a17.75,17.75,0,0,0-9.59-6.76c-6.85-1.92-13.85-.25-20.79,5a1.19,1.19,0,1,1-1.43-1.89c7.46-5.63,15.37-7.49,22.86-5.38a19.75,19.75,0,0,1,9.54,6c2.5-5.74,6.61-9.46,11.5-10.31a11.33,11.33,0,0,1,10.87,4.16l.32.4-.07.5c0,.1-1.35,10.07-3,20.05-3.43,20.79-4.73,21.33-5.67,21.71-3.95,1.62-13.18,1-13.57,1s-32.47-2-50.47-.63-49.52,7.94-49.84,8A68.09,68.09,0,0,1,574,333.09Zm121-11.63Z"/><path class="cls-4" d="M693.31,322.59l2.38-.17a7.09,7.09,0,0,0,6.15-4.67c3-8.23,8.18-26.23,1.31-36.47-.2-.3-.41-.59-.63-.86,0,0-6.23-4.88-9.87,2.94C689.25,290.66,683.23,321.27,693.31,322.59Z"/><g class="cls-5"><path class="cls-3" d="M690.87,288.52c.09-.18.19-.35.28-.5,4.6-7.89,12.17-3.11,12.17-3.11a10.24,10.24,0,0,1,.76.85,15.53,15.53,0,0,1,2,3.14,19.78,19.78,0,0,0-2.92-7.62c-.2-.3-.41-.59-.63-.86,0,0-6.23-4.88-9.87,2.94A35.83,35.83,0,0,0,690.87,288.52Z"/></g><path class="cls-2" d="M706.1,289.78h-.19l-14.78-1.37a1.19,1.19,0,0,1,.22-2.36l14.77,1.37a1.18,1.18,0,0,1,0,2.36Z"/><path class="cls-2" d="M706.59,297.67h-.16l-17.24-1a1.18,1.18,0,0,1-1.11-1.25,1.17,1.17,0,0,1,1.25-1.11l17.24,1a1.18,1.18,0,0,1,0,2.36Z"/><path class="cls-2" d="M705.65,305.5h-.14L688,304.66a1.19,1.19,0,0,1,.12-2.37l17.48.85a1.18,1.18,0,0,1,0,2.36Z"/><path class="cls-2" d="M703.52,314.13h-.11l-15.59-.26a1.19,1.19,0,1,1,0-2.37l15.59.26a1.19,1.19,0,0,1,.07,2.37Z"/><g class="cls-1"><path class="cls-2" d="M693.31,322.59l2.38-.17a7.09,7.09,0,0,0,6.15-4.67c.77-2.13,1.69-4.92,2.51-8.06a8.73,8.73,0,0,1-7.23,4.43l-2.83.21c-4.09-.4-5.9-4.25-6.34-9.43C687.23,313.75,688.21,321.92,693.31,322.59Z"/></g><path class="cls-2" d="M695.78,323.6l-2.5.18h-.12a6.15,6.15,0,0,1-4.66-3.43c-4.72-8.61.29-31.49,3.08-37.48,1.29-2.77,3-4.44,5.23-5,3.34-.8,6.32,1.49,6.44,1.59l.11.08.08.1c.24.3.48.62.7.95,7,10.44,2.26,28-1.18,37.54A8.3,8.3,0,0,1,695.78,323.6Zm-2.43-2.2,2.25-.17a5.91,5.91,0,0,0,5.13-3.88c2.65-7.34,8.1-25.48,1.44-35.41a8,8,0,0,0-.48-.66,5.86,5.86,0,0,0-4.34-1.07c-1.44.35-2.66,1.58-3.62,3.65-2.92,6.26-7.16,28-3.15,35.34A3.87,3.87,0,0,0,693.35,321.4Z"/><path class="cls-4" d="M571.36,331.56l-2.38.17a7.08,7.08,0,0,1-6.77-3.71c-4.14-7.71-11.92-24.75-6.63-35.89.16-.33.32-.64.5-.94,0,0,5.45-5.74,10.2,1.46C570.71,299.38,581.14,328.78,571.36,331.56Z"/><g class="cls-5"><path class="cls-3" d="M568.79,297.49c-.12-.16-.23-.31-.35-.45-5.7-7.13-12.49-1.29-12.49-1.29a8.69,8.69,0,0,0-.63.95,15.54,15.54,0,0,0-1.51,3.39,19.93,19.93,0,0,1,1.77-8c.16-.33.32-.64.5-.94,0,0,5.45-5.74,10.2,1.46A35.63,35.63,0,0,1,568.79,297.49Z"/></g><path class="cls-2" d="M553.91,301a1.18,1.18,0,0,1-.37-2.33L568,295.13a1.18,1.18,0,1,1,.57,2.3l-14.42,3.51Z"/><path class="cls-2" d="M554.58,308.85a1.19,1.19,0,0,1-.33-2.35l16.9-3.55a1.2,1.2,0,0,1,1.41.92,1.19,1.19,0,0,1-.92,1.4l-16.9,3.55A.9.9,0,0,1,554.58,308.85Z"/><path class="cls-2" d="M556.65,316.46a1.19,1.19,0,0,1-.31-2.35l17.17-3.39A1.18,1.18,0,1,1,574,313l-17.17,3.4Z"/><path class="cls-2" d="M560,324.68a1.19,1.19,0,0,1-.28-2.36l15.39-2.53a1.17,1.17,0,0,1,1.36,1,1.19,1.19,0,0,1-1,1.37l-15.39,2.53Z"/><g class="cls-1"><path class="cls-2" d="M571.36,331.56l-2.38.17a7.08,7.08,0,0,1-6.77-3.71c-1.07-2-2.39-4.62-3.66-7.61a8.71,8.71,0,0,0,7.8,3.32l2.84-.2c4-1,5.21-5.07,4.88-10.26C576.08,321.92,576.31,330.15,571.36,331.56Z"/></g><path class="cls-2" d="M571.57,332.73l-2.5.18a8.28,8.28,0,0,1-7.9-4.33c-4.8-8.93-12-25.61-6.66-37a11.39,11.39,0,0,1,.55-1l.07-.11.09-.1c.11-.12,2.72-2.82,6.15-2.51,2.23.2,4.22,1.59,5.9,4.14,3.63,5.52,11.93,27.42,8.52,36.62a6.13,6.13,0,0,1-4.1,4.08ZM557,291.92c-.14.23-.26.47-.38.71-5.13,10.8,2.91,28,6.61,34.83a5.91,5.91,0,0,0,5.64,3.09l2.25-.17a3.84,3.84,0,0,0,2.41-2.58c2.9-7.81-4.47-28.73-8.27-34.5-1.26-1.91-2.65-2.94-4.12-3.08A5.85,5.85,0,0,0,557,291.92Z"/><path class="cls-2" d="M598.13,328.46a.89.89,0,0,1-.88-1.24c3.61-8.33,3-17.36-1.79-26.83A49.79,49.79,0,0,0,587,288.51a.89.89,0,0,1,0-1.26.88.88,0,0,1,1.25,0,50.37,50.37,0,0,1,8.75,12.3c5,9.84,5.63,19.66,1.85,28.39A.88.88,0,0,1,598.13,328.46Z"/><path class="cls-2" d="M666.78,323.41A.87.87,0,0,1,666,323c-5-8.09-5.82-17.89-2.31-28.36a50.91,50.91,0,0,1,6.85-13.45.89.89,0,1,1,1.41,1.08,50.21,50.21,0,0,0-6.59,13c-3.36,10.07-2.64,19.08,2.15,26.8a.89.89,0,0,1-.28,1.22A.9.9,0,0,1,666.78,323.41Z"/><g class="cls-1"><path class="cls-2" d="M630,279.61l1.17,1.56Z"/></g><path class="cls-3" d="M609.59,281.42c-5.22,2.57-13.57,2.73-19.29,2.46a6.11,6.11,0,0,1-5.8-6.55h0a6.11,6.11,0,0,1,5.92-5.66c5.33-.14,13.29-.61,18.25-2.1"/><g class="cls-1"><path class="cls-2" d="M609.59,281.42c-5.22,2.57-13.57,2.73-19.29,2.46a6.1,6.1,0,0,1-5.79-6.55,5.75,5.75,0,0,1,.48-2,6.08,6.08,0,0,0,4.9,2.88c5.71.27,14,.12,19.26-2.44Z"/></g><path class="cls-2" d="M599.11,285a73.36,73.36,0,0,1-8.86.07,7.29,7.29,0,0,1,.14-14.57c5.56-.15,13.19-.63,17.93-2.05.68-.2,2.39-.32,3.67,2.95,1.36,3.43,1.69,9.33-1.88,11.09h0A30.66,30.66,0,0,1,599.11,285Zm-8.89-12.12a4.92,4.92,0,0,0,.14,9.83c5.81.27,13.78.09,18.7-2.34h0c1.41-.7,1.52-3.08,1.5-4.07,0-2.89-1.14-5.17-1.68-5.55-5,1.48-12.77,2-18.42,2.12Z"/><path class="cls-3" d="M670.13,278a72.19,72.19,0,0,1-9.12,1.24l-.67,0-.7,0h-2.91l-.38,0-.6,0-.56,0h-.11l-.64-.07-.63-.07h0l-.35-.05L653,279h0c-.39-.06-.78-.14-1.15-.23l-.6-.16-.59-.17-.39-5.69-.43-6.17a34.13,34.13,0,0,0,4.4.32,109.69,109.69,0,0,0,14-.91l.29,0A6.11,6.11,0,0,1,670.13,278Z"/><g class="cls-1"><path class="cls-2" d="M670.13,278a72.19,72.19,0,0,1-9.12,1.24l-.67,0-.7,0h-2.9l-.39,0-.6,0-.56,0h-.11l-.64-.07-.63-.07h0l-.35-.05L653,279h0c-.39-.06-.78-.14-1.15-.23l-.6-.16-.59-.17-.39-5.69,0-.41.56.16.6.16c.37.09.76.17,1.15.23h0l.39.07.34.05h.06l.63.07.63.06h.11l.56.05.6,0h.39l.45,0h2.45l.71,0,.66,0a72.19,72.19,0,0,0,9.12-1.24,6,6,0,0,0,4.31-3.33,6.25,6.25,0,0,1,.92,2.11A6.11,6.11,0,0,1,670.13,278Z"/></g><path class="cls-2" d="M661.58,280.4a31,31,0,0,1-11.25-.87c-3.79-1.22-4.32-7.11-3.49-10.7.8-3.43,2.51-3.56,3.2-3.46,4.91.72,12.52.07,18-.6a7.29,7.29,0,0,1,2.28,14.4A74,74,0,0,1,661.58,280.4Zm-11.75-12.67c-.48.46-1.22,2.87-.85,5.73.12,1,.58,3.33,2.08,3.81h0c5.22,1.68,13.13.7,18.84-.42a4.92,4.92,0,0,0-1.53-9.72C662.74,267.81,655,268.46,649.83,267.73Z"/><path class="cls-3" d="M651.61,262.48l1.4,19a6.45,6.45,0,0,1-5.94,6.88l-35,2.57a6.44,6.44,0,0,1-6.87-5.93l-1.4-19a6.44,6.44,0,0,1,5.93-6.87l35-2.57a6.43,6.43,0,0,1,6.88,5.93Z"/><g class="cls-1"><path class="cls-2" d="M651.61,262.48l1.4,19a6.45,6.45,0,0,1-5.94,6.88l-35,2.57a6.44,6.44,0,0,1-6.87-5.93l-.53-7.11c4.29,7,17.23,8.94,27.63,7.11a3.91,3.91,0,0,0,3.1-5,9.24,9.24,0,0,1-.41-2.13c-.31-4.15,2.19-7.71,5.58-8s6.18,2.71,6.65,6.65c3.79-5.79,3.48-13.15,2.78-17.84A6.4,6.4,0,0,1,651.61,262.48Z"/></g><path class="cls-2" d="M647.16,289.53l-35,2.57a7.6,7.6,0,0,1-8.14-7l-1.4-19a7.62,7.62,0,0,1,7-8.15l35-2.57a7.62,7.62,0,0,1,8.14,7l1.4,19A7.62,7.62,0,0,1,647.16,289.53ZM609.84,260.3a5.25,5.25,0,0,0-4.84,5.61l1.4,19a5.25,5.25,0,0,0,5.61,4.84l35-2.57a5.24,5.24,0,0,0,4.83-5.61l-1.39-19a5.24,5.24,0,0,0-5.61-4.84l-35,2.57Z"/><circle class="cls-6" cx="640.8" cy="272.82" r="5.54"/><path class="cls-3" d="M646.33,272.42a5.16,5.16,0,0,1,0,.88,5.54,5.54,0,0,0-10.9.8,4.94,4.94,0,0,1-.14-.87,5.54,5.54,0,1,1,11.05-.81Z"/><g class="cls-1"><path class="cls-2" d="M646.33,272.41a5.54,5.54,0,0,1-11.05.82,5.48,5.48,0,0,1,.23-2,5.53,5.53,0,0,0,10.29-.76A5.7,5.7,0,0,1,646.33,272.41Z"/></g><path class="cls-2" d="M641.28,279.23a6.43,6.43,0,1,1,5.94-6.88A6.44,6.44,0,0,1,641.28,279.23Zm-.82-11.05a4.65,4.65,0,1,0,5,4.3A4.66,4.66,0,0,0,640.46,268.18Z"/><path class="cls-2" d="M626.39,290.76a.89.89,0,0,1-1-.82l-1-13.1-7-4.51a.91.91,0,0,1-.4-.69l-1-13a.89.89,0,1,1,1.77-.13l.93,12.55,7,4.51a.92.92,0,0,1,.4.69l1,13.54A.89.89,0,0,1,626.39,290.76Z"/><path class="cls-3" d="M672.29,201h0a1,1,0,0,1-1.18-.87l-4.41-29.55a1,1,0,0,1,.88-1.18h0a10.88,10.88,0,0,1,12.36,9.16l1.51,10.08A10.88,10.88,0,0,1,672.29,201Z"/><path class="cls-2" d="M672.22,201.23a1.19,1.19,0,0,1-.83-.24,1.24,1.24,0,0,1-.49-.82l-4.41-29.55a1.25,1.25,0,0,1,1.06-1.42,11.1,11.1,0,0,1,12.6,9.34l1.51,10.08a11.1,11.1,0,0,1-9.34,12.6Zm-3.8-31.7-.81.09a.84.84,0,0,0-.7.94l4.41,29.55a.82.82,0,0,0,.32.54.85.85,0,0,0,.62.15h0a10.65,10.65,0,0,0,9-12.12l-1.5-10.08a10.67,10.67,0,0,0-11.31-9.07Z"/><g class="cls-1"><path class="cls-2" d="M680.74,183.92l.71,4.73A10.9,10.9,0,0,1,672.29,201a1,1,0,0,1-1.18-.88l-1.18-7.85a1.05,1.05,0,0,0,1,.46l.7-.1A10.88,10.88,0,0,0,680.74,183.92Z"/></g><path class="cls-2" d="M672.29,202.2a2.19,2.19,0,0,1-1.48-.43,2.15,2.15,0,0,1-.87-1.45l-4.41-29.55a2.23,2.23,0,0,1,1.87-2.53,12.08,12.08,0,0,1,13.72,10.16l1.5,10.07a12.08,12.08,0,0,1-10.16,13.72h-.17Zm-4.39-31.64,4.36,29.26a9.71,9.71,0,0,0,8-11l-1.5-10.08a9.7,9.7,0,0,0-10.87-8.18Z"/><path class="cls-3" d="M570,184h0a1,1,0,0,1,1.18.87l4.4,29.55a1,1,0,0,1-.87,1.18h0a10.88,10.88,0,0,1-12.37-9.16l-1.5-10.07A10.88,10.88,0,0,1,570,184Z"/><path class="cls-2" d="M574,215.85a11.11,11.11,0,0,1-11.78-9.43l-1.5-10.07A11.11,11.11,0,0,1,570,183.74a1.25,1.25,0,0,1,1.42,1l4.4,29.55a1.24,1.24,0,0,1-1.05,1.42C574.5,215.8,574.23,215.83,574,215.85Zm-3.88-31.69a10.68,10.68,0,0,0-9,12.12l1.5,10.08a10.7,10.7,0,0,0,12.13,9,.82.82,0,0,0,.54-.32.85.85,0,0,0,.15-.62L571,184.85a.82.82,0,0,0-.94-.69Z"/><g class="cls-1"><path class="cls-2" d="M574.4,206.17l1.22,8.2a1,1,0,0,1-.87,1.18,10.88,10.88,0,0,1-12.37-9.16l-.63-4.24A10.89,10.89,0,0,0,572.5,207l1.08-.16A1,1,0,0,0,574.4,206.17Z"/></g><path class="cls-2" d="M574,216.82a12.08,12.08,0,0,1-12.81-10.25l-1.5-10.08a12.07,12.07,0,0,1,10.15-13.71h0a2.22,2.22,0,0,1,2.53,1.87l4.4,29.55a2.21,2.21,0,0,1-1.87,2.52C574.62,216.77,574.32,216.8,574,216.82Zm-3.95-31.68a9.72,9.72,0,0,0-8,11l1.5,10.08a9.71,9.71,0,0,0,10.88,8.18Z"/><circle class="cls-3" cx="621.17" cy="192.48" r="50.91"/><path class="cls-2" d="M624.91,243.47a51.12,51.12,0,0,1-7.67-102l.18,0a51.12,51.12,0,0,1,7.68,102Zm-7.46-101.55h-.18A50.7,50.7,0,0,0,624.88,243h.19a50.7,50.7,0,0,0-7.62-101.11Z"/><g class="cls-1"><path class="cls-2" d="M670.9,181.58a49.87,49.87,0,0,1,1,7,50.91,50.91,0,1,1-101.52,7.82c-.07-.8-.11-1.61-.13-2.41a50.91,50.91,0,0,0,100.62-12.4Z"/></g><path class="cls-2" d="M625,244.44a52.1,52.1,0,0,1-7.83-103.9l.19,0a52.15,52.15,0,0,1,55.76,47.95h0a52.15,52.15,0,0,1-47.94,55.95Zm-7.46-101.55h-.18a49.73,49.73,0,0,0,7.46,99.17H625a49.79,49.79,0,0,0,45.76-53.4h0A49.78,49.78,0,0,0,617.53,142.89Z"/><path class="cls-2" d="M671.87,189.88a45.75,45.75,0,0,1-6.26,27.56C662,223.53,646,235.1,625,237.22c-19.42,2-38.06-6.76-42.72-12.09a45.6,45.6,0,0,1-11.19-25.94c-2.43-26.26,19.12-39.22,46.95-41.79S669.44,163.63,671.87,189.88Z"/><path class="cls-2" d="M623.56,238.54c-19.47,1.43-37.4-7.2-42.15-12.63a46.84,46.84,0,0,1-11.48-26.62c-1.19-12.82,3-23.19,12.57-30.81,8.32-6.65,20.58-10.89,35.45-12.26s27.7.55,37.1,5.57c10.76,5.74,16.81,15.15,18,28h0A46.79,46.79,0,0,1,666.63,218c-3.54,6-19.35,18.12-41.49,20.36Zm-3.62-80.11-1.77.15c-14.8,1.36-48.88,8-45.88,40.5a44.36,44.36,0,0,0,10.91,25.27c4.34,5,21.77,13.18,40.22,11.82.49,0,1-.08,1.48-.13,21-2.13,36.47-13.75,39.69-19.2a44.52,44.52,0,0,0,6.1-26.85h0C667.81,158.77,635.55,157.28,619.94,158.43Z"/><g class="cls-5"><ellipse class="cls-3" cx="655.16" cy="187.83" rx="9.01" ry="6.53" transform="matrix(0.09, -1, 1, 0.09, 410.98, 824.15)"/></g><g class="cls-5"><ellipse class="cls-3" cx="648.85" cy="206.33" rx="4.14" ry="3.55" transform="translate(302.46 792.51) rotate(-77.06)"/></g><g class="cls-1"><path class="cls-7" d="M659.81,166.3c6.7,5.3,11.08,13,12.06,23.58a45.75,45.75,0,0,1-6.26,27.56C662,223.53,646,235.1,625,237.22a62.81,62.81,0,0,1-21.12-1.62c25.69-3.17,45.23-17.35,49.7-24.9a58,58,0,0,0,7.94-35A51.82,51.82,0,0,0,659.81,166.3Z"/></g><path class="cls-2" d="M572.92,177.63a1.13,1.13,0,0,1-.76-.22,1.18,1.18,0,0,1-.34-1.58C579.49,162,596,152.92,617.18,151s38.92,3.7,49.1,15.49a1.18,1.18,0,0,1-1.54,1.78l-.13-.09-.1-.12c-9.67-11.21-26.85-16.57-47.11-14.7S581.15,163.84,573.88,177l-.08.13A1.22,1.22,0,0,1,572.92,177.63Z"/><g class="cls-5"><path class="cls-3" d="M583.86,213.76s-10.52-25.15,2.49-36.76,33.08-13.42,32.73-12.09c0,0-21.73,7.44-28.81,25.81C584.82,204.9,583.86,213.76,583.86,213.76Z"/></g><g class="cls-8"><path class="cls-9" d="M638.33,313.55l-.12.08-13.69,1-.13-.07Z"/></g><path class="cls-10" d="M687.62,258.74a22.57,22.57,0,0,1,.06,2.6c-.3,10.71-7.09,21.86-15.87,31.88-14.24,16.25-33.7,29.53-39.12,33.08a3.13,3.13,0,0,1-3,.24c-6.91-3.12-34.9-16.41-51.59-34.31-7-7.5-12-15.8-12.63-24.51a31.46,31.46,0,0,1,.24-6.74c2.14-15,15.06-27.11,31.5-28.32a34.78,34.78,0,0,1,27.88,10.61,34.78,34.78,0,0,1,26-14.57C670,227.31,686.3,240.76,687.62,258.74Z"/><g class="cls-1"><path class="cls-2" d="M687.51,258.75a31.47,31.47,0,0,1-2,13,58.69,58.69,0,0,1-7.13,13.15,101.6,101.6,0,0,1-6.59,8.34c-14.25,16.25-33.7,29.53-39.12,33.08a3.13,3.13,0,0,1-3,.24c-6.91-3.12-34.91-16.41-51.59-34.31l-.65-.71-.63-.71c-.27-.29-.53-.59-.78-.89a59.16,59.16,0,0,1-4.53-6l-.31-.47-.41-.66a42,42,0,0,1-2.22-4c-.11-.22-.21-.45-.32-.68l-.34-.78c0-.13-.11-.26-.17-.39s-.13-.32-.2-.49c-.19-.49-.37-1-.54-1.48-.09-.26-.18-.53-.26-.79s-.25-.8-.36-1.2-.14-.53-.2-.8-.07-.26-.1-.4-.11-.53-.17-.8,0-.27-.07-.41l-.06-.31,0-.21c0-.23-.07-.46-.11-.69s-.07-.54-.09-.81l0-.41a1.5,1.5,0,0,1,0-.2l0-.21a32.38,32.38,0,0,1-.06-3.41c0-.27,0-.54,0-.82v0l.06-.82v-.06c0-.54.11-1.07.19-1.6,6.71,1.21,13.25,2.19,15.49,2.64,7,1.42,12.67,2.79,12.71,15.94a12.28,12.28,0,0,1-6.41,10.51q1.83,1.43,3.69,2.79a57.29,57.29,0,0,0,75.47-6.8c.67-.71,1.33-1.42,2-2.14a12.2,12.2,0,0,1-7.52-9.3c-1.88-13,3.51-15.2,10.24-17.63,2.15-.78,8.48-2.7,14.94-4.88.18.59.34,1.18.48,1.78A31.13,31.13,0,0,1,687.51,258.75Z"/></g><g class="cls-1"><path class="cls-2" d="M565.39,264.31a32.38,32.38,0,0,0,.06,3.41l0,.21c0-.07,0-.14,0-.21A32.38,32.38,0,0,1,565.39,264.31Z"/></g><g class="cls-1"><path class="cls-2" d="M566.72,274.17q-.19-.6-.36-1.2Q566.53,273.57,566.72,274.17Z"/></g><g class="cls-1"><path class="cls-2" d="M567.52,276.44c-.19-.49-.38-1-.54-1.48C567.15,275.46,567.33,276,567.52,276.44Z"/></g><g class="cls-1"><path class="cls-2" d="M570.77,282.81a38.85,38.85,0,0,1-2.22-4A42,42,0,0,0,570.77,282.81Z"/></g><g class="cls-1"><path class="cls-2" d="M576,289.92a59.16,59.16,0,0,1-4.53-6A59.16,59.16,0,0,0,576,289.92Z"/></g><g class="cls-1"><path class="cls-2" d="M687.62,258.74a25.07,25.07,0,0,1,.06,2.6,32.85,32.85,0,0,1-2.15,10.39,31.47,31.47,0,0,0,2-13,31.13,31.13,0,0,0-.74-4.86c0-.09,0-.19,0-.29A30.94,30.94,0,0,1,687.62,258.74Z"/></g><g class="cls-11"><path class="cls-3" d="M687.62,258.74a22.27,22.27,0,0,1,.06,2.31c-2.63-16.65-18.29-28.74-36.22-27.43a35,35,0,0,0-24,12c-.37.43,2.53,3.28,2.48,3.85-.31,3.75-3.83-.46-4.49-1.26a34.77,34.77,0,0,0-27.89-10.6c-17.93,1.32-31.68,15.6-31.82,32.48-.13-.78-.22-1.56-.28-2.35-1.32-18,12.9-33.67,31.74-35.06a34.78,34.78,0,0,1,27.88,10.61,34.78,34.78,0,0,1,26-14.57C670,227.31,686.3,240.76,687.62,258.74Z"/></g><path class="cls-2" d="M631.29,328a4.32,4.32,0,0,1-2.11-.37c-10.45-4.71-62.7-29.75-64.91-59.81-1.37-18.6,13.36-34.9,32.83-36.33a35.9,35.9,0,0,1,27.84,10A35.86,35.86,0,0,1,651,227.52c19.47-1.44,36.42,12.53,37.79,31.13C691,287.94,643,321,633.35,327.29A4.23,4.23,0,0,1,631.29,328Zm-34-94.15c-18.17,1.34-31.92,16.5-30.64,33.79,2.11,28.73,53.28,53.21,63.52,57.83a2,2,0,0,0,1.89-.15,226.1,226.1,0,0,0,31.46-25.08c16.08-15.7,23.8-29.63,22.93-41.4-1.27-17.3-17.08-30.29-35.25-28.95a33.43,33.43,0,0,0-25.14,14.06l-.84,1.2-1-1.06A33.46,33.46,0,0,0,597.28,233.84Z"/><path class="cls-2" d="M629.24,249.63a1.17,1.17,0,0,1-1-.49c-1.83-2.53-4-5.08-4-5.1a1.2,1.2,0,0,1,.13-1.67,1.18,1.18,0,0,1,1.67.13c.1.1,2.26,2.64,4.15,5.25a1.2,1.2,0,0,1-.27,1.66A1.22,1.22,0,0,1,629.24,249.63Z"/><g class="cls-11"><path class="cls-3" d="M640.36,241.59c4.86-5.44,20.08-7.38,27.43-1,6.29,5.47-3.76,5.25-11.69,5.37C649.23,246.08,635.51,247,640.36,241.59Z"/></g><path class="cls-3" d="M584,236.21s-26.26,14-20.53,37.11c5.46,22,30.13,15.26,30.09,1.53,0-13.15-5.69-14.52-12.71-15.94-5.19-1.06-7.65-5-7.37-8.18C574,244.34,584,236.21,584,236.21Z"/><g class="cls-1"><path class="cls-2" d="M593.54,274.85c0,13.73-24.63,20.51-30.09-1.53a26.48,26.48,0,0,1-.75-8.35c.06.29.13.59.2.89,5.3,21.41,28.75,15.61,30,2.67A29.71,29.71,0,0,1,593.54,274.85Z"/></g><g class="cls-1"><path class="cls-2" d="M685.53,271.73a57.81,57.81,0,0,1-6.93,13.11l-.2,0A58.69,58.69,0,0,0,685.53,271.73Z"/></g><path class="cls-3" d="M664.57,230.29s28,10,25.74,33.7c-2.18,22.61-27.58,19.5-29.54,5.92-1.89-13,3.51-15.2,10.23-17.63,5-1.81,6.84-6.1,6.11-9.17C675.62,236.87,664.57,230.29,664.57,230.29Z"/><g class="cls-1"><path class="cls-2" d="M660.77,269.91c2,13.58,27.36,16.69,29.54-5.92a26.66,26.66,0,0,0-.48-8.37c0,.3,0,.6-.07.91-2.11,22-26.16,19.65-29.32,7A28.92,28.92,0,0,0,660.77,269.91Z"/></g><path class="cls-2" d="M580.3,288.71c-6.92.51-15-3.17-18-15.1-2.44-9.86.46-19.65,8.39-28.31a52.7,52.7,0,0,1,12.73-10.13,1.18,1.18,0,0,1,1.31,2c-.1.08-9.59,7.89-10.09,13.71-.23,2.67,1.94,6,6.43,6.9,6.69,1.36,13.62,2.77,13.66,17.11,0,6.89-5.83,12.82-13.6,13.78Zm-5.65-44.06c-.75.72-1.51,1.48-2.25,2.29-7.44,8.16-10.07,16.93-7.8,26.1,2.7,10.9,10.16,14,16.24,13.24,5.6-.69,11.54-4.93,11.52-11.43,0-12.41-5.21-13.45-11.76-14.78-5.84-1.19-8.64-5.75-8.32-9.44A13.82,13.82,0,0,1,574.65,244.65Z"/><path class="cls-2" d="M675.9,281.68c-.28,0-.56,0-.84,0-7.83.19-14.48-4.82-15.47-11.64-2.05-14.2,4.59-16.6,11-18.92,4.31-1.55,6-5.17,5.35-7.77-1.35-5.69-11.88-12-12-12.09a1.18,1.18,0,0,1-.47-1.52,1.19,1.19,0,0,1,1.47-.61,53,53,0,0,1,14.08,8.16c9.11,7.41,13.41,16.67,12.44,26.78C690.31,276.34,682.81,281.17,675.9,281.68ZM675,237.27a13.87,13.87,0,0,1,3.22,5.57c.86,3.6-1.25,8.53-6.85,10.55-6.29,2.27-11.25,4.07-9.47,16.35.93,6.42,7.43,9.75,13.06,9.61,6.13-.14,13-4.29,14.13-15.47.9-9.39-3-17.7-11.53-24.67C676.75,238.51,675.89,237.87,675,237.27Z"/><path class="cls-2" d="M688.79,252.82a.88.88,0,0,1-.82-.42,22.29,22.29,0,0,0-11.22-8.79.89.89,0,0,1,.52-1.7,23.65,23.65,0,0,1,12.21,9.56.88.88,0,0,1-.29,1.22A.82.82,0,0,1,688.79,252.82Z"/><path class="cls-2" d="M563.27,262.05a.89.89,0,0,1-.88-1.24,23.69,23.69,0,0,1,10.68-11.24.89.89,0,1,1,.76,1.61h0A22.33,22.33,0,0,0,564,261.51.87.87,0,0,1,563.27,262.05Z"/></svg>